<?xml version="1.0" encoding="utf-8"?>
<!-- Generator: Adobe Illustrator 27.5.0, SVG Export Plug-In . SVG Version: 6.00 Build 0)  -->
<svg version="1.1" xmlns="http://www.w3.org/2000/svg" xmlns:xlink="http://www.w3.org/1999/xlink" x="0px" y="0px"
	 viewBox="0 0 750 500" style="enable-background:new 0 0 750 500;" xml:space="preserve">
<g id="BACKGROUND">
	<rect x="125" style="fill:#FFFFFF;" width="500" height="500"/>
</g>
<g id="OBJECTS">
	<g>
		<path style="fill:#FDF0E2;" d="M647.964,283.848c-1.642-18.97-20.345-18.791-20.054-37.825
			c0.26-16.987,38.222-30.233,34.419-46.816c-6.637-28.941-52.734-14.653-57.372-28.354c-3.476-10.265,3.416-15.067,12.077-21.95
			c38.659-30.726-39.203-55.824-86.164-39.265c-17.729,6.251-35.499,3.561-52.948-3.319c-7.577-2.988-13.869-8.311-20.87-12.402
			c-16.439-9.606-37.161-12.107-55.548-6.705c-11.576,3.402-22.098,9.717-33.804,12.679c-16.226,4.106-34.211,1.228-48.192-7.712
			l-25.489,0.713c-18.348-3.177-37.56-1.59-55.08,4.55c-6.554,2.297-13.318,5.617-16.499,11.601
			c-2.83,5.323-2.309,11.85-5.113,17.187c-3.717,7.075-12.179,10.317-19.927,12.976c-13.346,4.579-26.692,9.157-40.037,13.736
			c-15.557,5.338-31.991,11.271-42.073,23.882c-10.082,12.611-9.996,34.082,4.408,41.867c5.606,3.029,12.35,3.532,18.083,6.331
			c5.733,2.799,10.404,9.779,7.031,15.054c-1.462,2.286-4.056,3.62-6.496,4.915c-13.129,6.97-25.176,15.83-35.619,26.196
			c-7.875,7.816-15.035,16.874-17.489,27.512c-2.454,10.638,0.861,23.098,10.308,29.078c7.687,4.866,17.536,4.641,26.731,4.75
			c21.421,0.253,42.805,3.255,63.411,8.903c12.812,3.511,26.204,8.694,33.445,19.473c4.442,6.613,6.154,14.805,11.385,20.858
			c7.181,8.309,19.521,10.756,30.7,9.863c11.178-0.893,21.92-4.538,33.003-6.203c27.56-4.14,55.251,4.083,82.634,9.196
			c51.063,9.533,104.271,8.233,154.768-3.781c6.244-1.486,13.969-5.275,12.814-11.375c-1.101-5.819-9.283-7.21-13.062-11.869
			c-6.093-7.511,1.865-18.046,9.829-23.7c12.677-9.002,26.838-16.055,41.788-20.812c19.6-6.237,26.783-7.233,45.485-15.651
			C638.526,302.892,648.889,294.539,647.964,283.848z"/>
		<g>
			<ellipse style="fill:#F7F0FD;" cx="351.06" cy="440.002" rx="259.434" ry="26.763"/>
			<g>
				<path style="fill:#FFD386;" d="M486.742,305.429c-0.02,6.07-1.22,42.225-19,50.442c-18.912,8.734-98.366,14.706-108.973-1.249
					c-1.513-2.284-2.898-4.811-3.269-7.504c-0.215-1.503-0.166-3.025,0.215-4.469c0.166-0.664,0.41-1.317,0.722-1.942
					c1.083-2.147,2.908-3.825,4.733-5.397c8.685-7.495,18.18-13.125,27.968-18.971c6.997-4.167,14.501-9.876,15.711-18.522
					c2.381-16.941-10.881-37.092-3.006-53.857c1.435-3.064,4.069-5.387,6.792-7.387c15.867-11.593,56.365-5.231,59.351-4.021
					C490.763,241.765,486.81,281.228,486.742,305.429z"/>
				<g>
					<rect x="424.73" y="348.62" style="fill:#0C2D41;" width="7.807" height="76.03"/>
					<path style="fill:#0C2D41;" d="M440.689,423.181l-12.056-5.346l-12.215,5.321c-3.556,1.549-7.254,2.769-11.055,3.545
						c-8.311,1.697-13.63,4.295-13.63,7.208c0,5.114,16.375,9.26,36.575,9.26c20.2,0,36.575-4.146,36.575-9.26
						c0-2.849-5.087-5.397-13.085-7.096C447.978,426.003,444.258,424.764,440.689,423.181z"/>
				</g>
				<path style="fill:#EDBE72;" d="M486.742,305.429c-0.02,6.07-1.22,42.225-19,50.442c-18.912,8.734-98.366,14.706-108.973-1.249
					c-1.513-2.284-2.898-4.811-3.269-7.504c-0.215-1.503-0.166-3.025,0.215-4.469c1.883,0.254,3.825,0.771,5.806,1.581
					c28.836,11.71,93.135,2.44,103.792-9.271c10.656-11.71,14.716-56.599,2.674-77.092c-12.042-20.493,0-25.314,0-25.314
					C490.763,241.765,486.81,281.228,486.742,305.429z"/>
			</g>
			<g>
				
					<rect x="234.228" y="348.62" transform="matrix(-1 -1.224647e-16 1.224647e-16 -1 476.2626 773.2702)" style="fill:#0C2D41;" width="7.807" height="76.03"/>
				<path style="fill:#FFD386;" d="M180.023,305.429c0.02,6.07,1.22,42.225,19,50.442c18.912,8.734,98.366,14.706,108.973-1.249
					c1.513-2.284,2.898-4.811,3.269-7.504c0.215-1.503,0.166-3.025-0.215-4.469c-0.166-0.664-0.41-1.317-0.722-1.942
					c-1.083-2.147-2.908-3.825-4.733-5.397c-8.685-7.495-18.18-13.125-27.968-18.971c-6.997-4.167-14.501-9.876-15.711-18.522
					c-2.381-16.941,10.881-37.092,3.006-53.857c-1.435-3.064-4.069-5.387-6.792-7.387c-15.867-11.593-56.365-5.231-59.351-4.021
					C176.002,241.765,179.954,281.228,180.023,305.429z"/>
				<path style="fill:#EDBE72;" d="M180.023,305.429c0.02,6.07,1.22,42.225,19,50.442c18.912,8.734,98.366,14.706,108.973-1.249
					c1.513-2.284,2.898-4.811,3.269-7.504c0.215-1.503,0.166-3.025-0.215-4.469c-1.883,0.254-3.825,0.771-5.806,1.581
					c-28.836,11.71-93.135,2.44-103.792-9.271c-10.656-11.71-14.716-56.599-2.674-77.092c12.042-20.493,0-25.314,0-25.314
					C176.002,241.765,179.954,281.228,180.023,305.429z"/>
				<path style="fill:#0C2D41;" d="M226.076,423.181l12.056-5.346l12.215,5.321c3.556,1.549,7.254,2.769,11.055,3.545
					c8.311,1.697,13.63,4.295,13.63,7.208c0,5.114-16.375,9.26-36.575,9.26s-36.575-4.146-36.575-9.26
					c0-2.849,5.087-5.397,13.085-7.096C218.786,426.003,222.507,424.764,226.076,423.181z"/>
			</g>
			<g>
				<g>
					<path style="fill:#BDBEC0;" d="M280.223,439.862c10.978,1.537,44.456,0.911,46.353-1.464c4.06-5.082-4.391-9.513-25.372-14.526
						c-0.574-0.137-3.507-4.443-3.846-6.798c-3.705-0.182-10.539,5.15-14.245,4.968C282.96,424.523,278.905,439.798,280.223,439.862
						z"/>
					<path style="fill:#BDBEC0;" d="M236.286,444.268c-0.076,8.769,21.832,8.283,29.475,3.401c2.562-1.636,2.752-4.197,0.312-7.414
						c-3.556-4.688-6.563-7.862-10.44-12.21c-2.33-2.614-5.039-5.731-4.237-9.139c-0.13,0.55-9.398-0.261-10.463-0.017
						c-4.882,1.117-2.434-0.45-3.237,3.475C236.402,428.686,236.29,443.878,236.286,444.268z"/>
					<path style="fill:#533238;" d="M320.955,338.862c3.721,20.036-16.425,48.303-21.119,83.439
						c-5.333,3.01-12.332,2.496-16.724-0.258c-0.933-31.89,4.468-59.018,9.774-70.508c0.469-1.016-16.264-7.907-23.012-10.942
						c-5.335-2.4-10.813-4.897-14.858-9.123c-7.074-7.388-8.392-18.582-7.616-28.781c0.073-0.965,0.199-2.012,0.88-2.701
						c0.695-0.703,1.767-0.829,2.751-0.917c11.336-1.005,21.885-0.501,33.739,8.607
						C290.206,311.855,319.989,333.657,320.955,338.862z"/>
					<path style="fill:#684048;" d="M236.7,347.03c4.968,3.038,10.532,5.526,10.505,8.909c-0.066,7.946-4.149,22.941-5.973,30.675
						c-2.753,11.674-4.095,23.68-3.987,35.673c1.213,4.82,13.215,6.104,15.899,0.175c8.172-18.053,16.538-37.564,25.372-55.302
						c3.415-6.858,5.793-11.71,4.635-17.077c-1.403-6.508-25.646-27.605-26.611-31.873c-0.964-4.267-0.596-8.709-0.223-13.068
						c-13.723-1.192-27.446-2.383-41.168-3.575c-3.157-0.274-7.215,2.376-7.939,5.076c-1.098,4.092-0.243,16.603,3.972,23.434
						C219.742,343.952,228.574,342.06,236.7,347.03z"/>
				</g>
				<g>
					<path style="fill:#FFAF66;" d="M317.378,176.084c0.792-0.519,1.701-0.892,2.344-1.587c0.773-0.835,1.144-2.109,2.189-2.559
						c1.495-0.644,4.907-1.168,3.104,2.127c-0.87,1.59-5.332,4.518-4.376,4.096c2.529-0.924,4.873-0.636,7.315-1.77
						c1.317-0.612,1.505-4.995,1.632-6.764c0.128-1.769,0.583-3.826,2.281-3.311c1.074,0.326,2.043,14.231,1.458,14.836
						c-2.298,2.377-6.388,4.645-7.969,6.201c-1.225,1.204,0.663,3.713-1.464,5.171c-1.952,1.328-8.066,5.974-10.032,0
						C312.587,188.656,313.85,178.397,317.378,176.084z"/>
					<path style="fill:#553568;" d="M302.988,236.311c9.867-10.64,6.591-31.565,9.031-47.32c2.602-1.923,10.242-1.08,13.987,0
						c0,16.85,3.406,44.81-3.192,57.309c-1.809,3.426-3.806,6.925-6.97,9.16c-4.696,3.316-11.112,3.17-16.557,1.324
						c-5.444-1.846-10.239-5.169-15.257-7.975c-5.081-2.841-10.488-5.205-15.017-8.863c-8.138-6.572-12.728-26.819,2.943-27.281
						C283.214,212.333,297.016,228.198,302.988,236.311z"/>
				</g>
				<g>
					<path style="fill:#553568;" d="M202.236,224.85c-2.297,5.887-0.54,10.719-0.803,17.033c-0.417,10.018-0.819,20.196,1.585,29.93
						c1.21,4.898,3.117,9.62,4.04,14.58c0.943,5.065,0.837,10.288,0.105,15.388c-0.233,1.623-0.521,3.326,0.046,4.864
						c1.039,2.818,4.39,3.893,7.318,4.563c10.721,2.45,21.675,4.369,32.66,3.855c12.655-0.592,24.913-4.384,37.385-6.607
						c2.237-1.553-11.654-10.973-7.423-32.37c2.21-11.177,4.534-22.427,4.747-33.818c0.16-8.548-1.426-17.022-3.005-25.425
						c-0.333-1.774-0.709-3.637-1.89-5.002c-1.631-1.884-4.335-2.324-6.807-2.644c-13.105-1.695-25.592-6.473-39.952-3.979
						c-7.677,1.333-16.349,3.58-19.387,5.483C206.353,213.52,204.678,218.589,202.236,224.85z"/>
					<g>
						<g>
							<path style="fill:#442B56;" d="M228.054,211.201c1.316,3.802,3.023,7.18,5.394,10.438c2.006,2.755,4.21,5.661,7.676,6.513
								c0.585,0.144,0.779-0.669,0.243-0.882c-6.289-2.503-10.254-10.274-12.579-16.272
								C228.615,210.549,227.891,210.73,228.054,211.201L228.054,211.201z"/>
						</g>
						<g>
							<path style="fill:#442B56;" d="M228.896,247.986c2.515,3.699,6.067,7.55,10.4,9.042c0.247,0.085,0.343-0.256,0.165-0.39
								c-3.714-2.784-7.249-5.143-10.012-8.975C229.212,247.334,228.661,247.642,228.896,247.986L228.896,247.986z"/>
						</g>
						<g>
							<path style="fill:#442B56;" d="M229.018,256.779c2.46,1.999,5.237,4.237,8.243,5.325c0.328,0.119,0.475-0.353,0.223-0.53
								c-2.622-1.844-5.473-3.249-8.014-5.248C229.152,256.075,228.696,256.517,229.018,256.779L229.018,256.779z"/>
						</g>
						<g>
							<path style="fill:#442B56;" d="M226.548,295.903c6.231,2.144,12.568,3.831,19.069,4.934
								c4.964,0.842,10.358,1.907,15.337,0.858c0.43-0.09,0.342-0.836-0.105-0.779c-11.054,1.411-23.672-2.243-34.154-5.542
								C226.354,295.267,226.216,295.789,226.548,295.903L226.548,295.903z"/>
						</g>
					</g>
				</g>
				<g>
					<path style="fill:#E89B5B;" d="M230.243,205.217c0.449,1.586,3.622,8.32,4.506,9.712c6.211,9.776,13.418,11.221,19.22,11.294
						c9.42,0.118,15.833-17.152,15.741-18.054c-0.137-1.342-4.638-0.612-5.345-1.76c-2.064-3.354,0.267-15.121-0.516-15.016
						c-7.35,0.986-24.124-13.665-25.342-4.768c-0.769,5.616-0.769,11.519-3.757,15.737
						C232.821,205.084,230.243,205.217,230.243,205.217z"/>
					<path style="fill:#FFAF66;" d="M242.64,194.071c2.787,3.212,10.959,10.426,17.606,7.678c2.48-1.025,4.569-2.827,6.345-4.839
						c6.285-7.121,6.171-17.582,6.324-32.101c0.072-6.886-5.223-7.672-11.651-10.143c-7.293-2.804-19.114-2.753-22.516,4.394
						C234.56,167.861,236.341,186.811,242.64,194.071z"/>
					<path style="fill:#FFFFFF;" d="M254.564,188.992c0,0,0.1,9.345,2.461,9.151c2.197-0.18,4.354-5.522,4.403-7.639
						C261.428,190.504,257.026,190.782,254.564,188.992z"/>
					<path style="fill:#0C2D41;" d="M239.812,174.786c1.16-8.401,1.515-17.358,4.711-15.806c8.37,4.063,20.109,7.074,28.393,5.83
						c2.68-4.046,4.333-9.116,1.212-14.287c-3.884-6.436-29.891-10.671-34.05-0.424c-8.783-0.732-9.992,7.428-10.243,10.528
						c-0.663,8.193,1.432,12.123,2.38,19.098c2.279,0.395,4.706,1.205,6.689,2.075C238.899,180.688,240.104,177.926,239.812,174.786
						z"/>
					<path style="fill:#FFAF66;" d="M241.13,177.813c-0.901-3.42-3.936-7.376-7.016-5.638c-3.904,2.201-2.057,8.53-0.075,11.674
						c0.998,1.583,2.6,2.889,4.468,2.775C242.64,186.373,241.13,177.813,241.13,177.813z"/>
					<circle style="fill:#0C2D41;" cx="253.006" cy="176.107" r="1.439"/>
					<g>
						<path style="fill:#E89B5B;" d="M260.089,174.509c-0.55,2.318-0.456,4.674,0.248,6.957c0.315,1.022,1.157,2.228,0.882,3.132
							c-0.556,1.828-2.801,1.487-4.192,1.403c-0.268-0.016-0.437,0.265-0.382,0.502c0.697,3.028,4.928,0.445,5.961-1.007
							c0.788-1.108,0.343-1.633-0.203-2.772c-1.225-2.557-1.429-5.269-1.146-8.057C261.325,173.997,260.242,173.865,260.089,174.509
							L260.089,174.509z"/>
					</g>
					<g>
						<path style="fill:#0C2D41;" d="M250.205,170.868c1.67-0.952,4.211-1.286,5.77,0.043c1.461,1.246,3.582-0.917,2.102-2.102
							c-2.708-2.17-6.45-1.551-9.064,0.515C248.119,170.031,249.262,171.405,250.205,170.868L250.205,170.868z"/>
					</g>
					<circle style="fill:#0C2D41;" cx="267.39" cy="176.107" r="1.439"/>
					<g>
						<path style="fill:#0C2D41;" d="M271.656,170.591c-1.3-3.159-4.614-3.197-7.388-2c-1.73,0.747-0.24,3.396,1.501,2.567
							c1.342-0.639,3.103-1.34,4.089,0.191C270.427,172.232,272.101,171.672,271.656,170.591L271.656,170.591z"/>
					</g>
					<g>
						<path style="fill:#E89B5B;" d="M238.003,175.669c-0.899-0.522-2.112-0.916-3.044-0.229c-0.789,0.582-0.716,1.641-0.731,2.514
							c-0.033,1.914,0.541,4.847,2.967,4.929c0.399,0.013,0.594-0.603,0.212-0.781c-1.347-0.627-1.994-1.526-2.112-3.018
							c-0.033-0.417-0.059-0.941-0.001-1.356c-0.081-0.76,0.373-1.228,1.359-1.404c0.313,0.107,0.628,0.209,0.944,0.307
							C238.171,176.813,238.514,175.966,238.003,175.669L238.003,175.669z"/>
					</g>
					<g>
						<path style="fill:#113F56;" d="M248.495,154.516c5.615,3.813,13.277,6.866,20.183,5.773c0.381-0.06,0.231-0.573-0.083-0.614
							c-7.331-0.953-13.313-1.708-19.792-5.686C248.465,153.782,248.173,154.298,248.495,154.516L248.495,154.516z"/>
					</g>
					<g>
						<path style="fill:#113F56;" d="M249.406,151.068c3.969,0.394,7.924,1.126,11.704,2.424c3.341,1.148,6.342,2.977,9.63,4.204
							c0.227,0.085,0.416-0.251,0.237-0.408c-5.567-4.865-14.406-6.543-21.571-6.815
							C249.018,150.458,249.032,151.031,249.406,151.068L249.406,151.068z"/>
					</g>
					<g>
						<path style="fill:#113F56;" d="M233.856,166.144c-0.068-2.098-0.166-4.33,0.52-6.345c0.774-2.273,2.249-3.038,4.1-4.282
							c0.224-0.151,0.133-0.478-0.135-0.497c-1.916-0.136-3.53,1.766-4.322,3.334c-1.221,2.416-1.069,5.178-0.849,7.79
							C233.206,166.578,233.871,166.591,233.856,166.144L233.856,166.144z"/>
					</g>
					<g>
						<path style="fill:#113F56;" d="M237.02,165.807c0.033-1.601,0.372-3.15,1.096-4.585c0.686-1.359,1.729-2.25,2.739-3.336
							c0.338-0.364-0.087-0.914-0.527-0.683c-2.917,1.535-4.231,5.521-3.827,8.603C236.544,166.128,237.013,166.152,237.02,165.807
							L237.02,165.807z"/>
					</g>
					<g>
						<path style="fill:#113F56;" d="M249.405,147.135c7.727-0.572,13.38,2.049,20.192,5.171c0.348,0.16,0.782-0.281,0.444-0.575
							c-5.442-4.716-13.751-5.637-20.636-4.917C249.204,146.835,249.198,147.15,249.405,147.135L249.405,147.135z"/>
					</g>
				</g>
				<g>
					<g>
						<path style="fill:#FFAF66;" d="M262.354,271.365c0.909-0.032,10.745,7.945,10.563,9.596c-0.278,2.528-8.299-1.866-9.301-1.952
							c-1.006-0.086-5.893,1.555-6.822,1.952c-3.445,1.473-5.962-0.326-9.59-1.264c-5.224-1.35-7.937-5.002-5.805-9.959
							C248.539,271.98,253.173,271.691,262.354,271.365z"/>
						<path style="fill:#5E3C77;" d="M198.222,230.37c-4.975,12.709-7.44,27.267-7.534,40.914c-0.048,6.994,3.054,9.578,4.635,9.677
							c19.137,1.196,37.362,1.669,56.463,0c0.759-5.285-0.712-5.938,0.048-11.222c-13.052-0.227-31.22-7.969-40.816-6.353
							c1.878-4.781,13.011-22.435,15.776-33.007c1.393-5.327,1.772-12.369-2.277-16.102c-4.877-4.496-9.211-4.979-13.662-3.578
							C201.036,213.79,200.304,225.051,198.222,230.37z"/>
					</g>
					<g>
						<g>
							<path style="fill:#553568;" d="M199.658,269.922c1.5-1.529,3.217-2.738,5.203-3.552c1.638-0.671,3.448-0.694,5.032-1.397
								c0.285-0.126,0.187-0.569-0.084-0.641c-3.691-0.984-8.425,2.449-10.755,4.986
								C198.684,269.721,199.271,270.316,199.658,269.922L199.658,269.922z"/>
						</g>
						<g>
							<path style="fill:#553568;" d="M199.041,265.266c1.325-0.505,2.657-0.874,4.07-1.028c1.252-0.137,2.523,0.094,3.752-0.168
								c0.253-0.054,0.3-0.439,0.073-0.557c-2.372-1.24-5.967-0.021-8.123,1.21C198.528,264.885,198.718,265.389,199.041,265.266
								L199.041,265.266z"/>
						</g>
						<g>
							<path style="fill:#553568;" d="M246.149,272.763c0.72,0.022,1.415,0.129,2.106,0.337c0.609,0.183,1.154,0.527,1.796,0.56
								c0.352,0.018,0.668-0.454,0.435-0.757c-0.897-1.166-2.968-1.339-4.336-1.329C245.382,271.58,245.385,272.74,246.149,272.763
								L246.149,272.763z"/>
						</g>
						<g>
							<path style="fill:#553568;" d="M246.151,275.671c0.982-0.098,1.921-0.013,2.867,0.269c0.194,0.058,0.474,0.005,0.607-0.16
								c0.115-0.143,0.197-0.251,0.183-0.441c-0.02-0.27-0.18-0.533-0.458-0.602c-1.115-0.274-2.211-0.313-3.345-0.144
								C245.4,274.683,245.535,275.732,246.151,275.671L246.151,275.671z"/>
						</g>
						<g>
							<path style="fill:#553568;" d="M246.149,278.954c0.667,0.013,1.334,0.026,2.002,0.039c0.589,0.012,1.077,0.057,1.547-0.337
								c0.163-0.137,0.163-0.457,0-0.593c-0.47-0.394-0.958-0.349-1.547-0.337c-0.667,0.013-1.335,0.026-2.002,0.039
								C245.384,277.779,245.383,278.939,246.149,278.954L246.149,278.954z"/>
						</g>
					</g>
				</g>
			</g>
			<g>
				<g>
					<path style="fill:#0C2D41;" d="M545.012,414.608c-2,3.203-10.999,7.649-13.752,8.421c-14.394,4.039-14.239,7.419-10.897,9.887
						c1.87,1.381,9.677,1.091,24.559,0.848c1.79-0.029,15.965-1.288,15.905-1.994c-0.621-7.317-4.513-18.387-5.492-27.32
						c-0.062-0.566-0.445-1.105-0.943-1.381c-0.393-0.219-0.869-0.207-1.318-0.19c-3.341,0.127-6.683,0.253-10.024,0.38
						C545.273,403.174,545.643,413.598,545.012,414.608z"/>
					<path style="fill:#0C2D41;" d="M499.22,414.798c-2.368,1.322-13.18,5.377-15.776,6.161c-4.691,1.417-12.081,4.424-10.734,8.657
						c3.61,3.22,11.021,1.878,15.858,1.865c6.102-0.016,30.495-0.556,30.496-0.973c0.024-10.278-3.09-17.482-5.138-26.208
						c-4.076-0.205-7.728-0.603-11.777-0.382C501.239,408.502,504.967,411.59,499.22,414.798z"/>
					<g>
						<path style="fill:#5E3C77;" d="M500.846,411.626c0.182,2.727,15.261,3.492,15.445-0.962
							c1.444-35.044,4.072-125.636,8.301-141.412c1.23-0.793,1.753-0.543,2.645,0.618c0.892,1.16,7.536,96.61,15.895,144.027
							c0.361,2.047,11.229,0.122,14.883-0.969c-0.336-69.01,4.421-129.715,2.237-182.97c-5.734-6.57-30.484-7.42-43.615-6.245
							c-8.524,0.763-21.645,0.976-26.597,9.288c0,8.335,0.987,22.654,0.971,25.475c-0.057,9.916,0.931,19.086,1.378,28.992
							C493.537,312.869,499.555,392.228,500.846,411.626z"/>
						<g>
							<g>
								<path style="fill:#4C3363;" d="M507.035,258.176c3.413,4.062,8.806,8.369,14.314,8.805c0.359,0.028,0.524-0.545,0.188-0.696
									c-2.426-1.091-4.95-1.742-7.277-3.106c-2.53-1.483-4.736-3.36-6.676-5.553C507.25,257.248,506.717,257.797,507.035,258.176
									L507.035,258.176z"/>
							</g>
							<g>
								<path style="fill:#4C3363;" d="M520.244,255.387c0.627,2.247,1.039,4.815,2.037,6.925c0.181,0.383,0.878,0.21,0.824-0.223
									c-0.291-2.319-1.316-4.705-1.994-6.941C520.944,254.595,520.088,254.826,520.244,255.387L520.244,255.387z"/>
							</g>
							<g>
								<path style="fill:#4C3363;" d="M540.931,251.525c0.829,2.167,2.311,3.938,4.354,5.064c1.633,0.9,4.416,1.865,6.14,0.834
									c0.254-0.152,0.213-0.566-0.084-0.641c-1.796-0.455-3.494-0.109-5.275-0.998c-1.911-0.955-3.372-2.543-4.15-4.53
									C541.679,250.65,540.695,250.908,540.931,251.525L540.931,251.525z"/>
							</g>
							<g>
								<path style="fill:#4C3363;" d="M545.927,261.295c0.995,0.212,1.989,0.423,2.984,0.635c0.803,0.171,1.625,0.478,2.432,0.242
									c0.223-0.065,0.365-0.408,0.151-0.573c-0.674-0.521-1.477-0.547-2.302-0.688c-1.006-0.171-2.012-0.341-3.018-0.512
									C545.594,260.299,545.334,261.169,545.927,261.295L545.927,261.295z"/>
							</g>
						</g>
					</g>
				</g>
				<g>
					<path style="fill:#E6335A;" d="M486.281,128.564c0.132,31.443,2.638,75.186,1.153,106.863
						c-0.389,8.289,7.194,12.093,8.883,12.68c12.363,4.298,24.274,7.141,35.243,0c10.403-6.772,11.758-9.056,20.129-16.664
						c5.108-4.642,10.925,0.173,10.899-0.328c-1.727-32.934-5.857-73.619-7.584-106.552c-0.093-1.773-16.016-3.527-17.806-3.685
						c-6.418-0.568-12.907-0.359-19.274,0.632C505.585,123.431,494.877,124.662,486.281,128.564z"/>
					<g>
						<path style="fill:#FFAF66;" d="M589.393,183.214c1.557,9.758-11.97,40.589-23.165,52.371c-2.456,2.585-3.969,6.58-5.5,9.8
							c-0.837,1.759-1.52,3.878-3.318,4.627c-1.869,0.778-4.015-0.396-5.341-1.925c-2.818-3.251-3.394-7.999-2.473-12.201
							c1.669-7.619,7.367-5.975,9.498-9.713c5.335-9.359,11.65-37.541,10.27-39.055c-4.704-5.158-13.061-23.666-19.994-33.576
							c-1.812-2.59,16.009-12.709,18.485-9.849C574.245,151.071,587.486,171.255,589.393,183.214z"/>
						<path style="fill:#E6335A;" d="M581.759,162.601c-4.792,1.857-21.348,10.344-23.823,7.714
							c-4.65-4.943-4.971-11.019-8.567-16.774c-3.596-5.755-6.18-12.308-6.326-19.093c-0.124-5.745,2.777-11.822,9.491-11.083
							c4.975,0.547,9.068,5.873,12.148,9.426C566.822,135.257,583.048,162.102,581.759,162.601z"/>
					</g>
				</g>
				<g>
					<path style="fill:#E89B5B;" d="M531.423,123.303c1.952,9.328-17.663,11.817-25.975,9.489c-0.843-0.236-1.757-0.588-2.141-1.374
						c-0.526-1.078,0.204-2.307,0.757-3.371c2.919-5.623,1.02-12.432-0.928-18.461c-0.587-1.818,17.096-10.688,18.691-6.393
						C524.816,111.244,528.164,117.765,531.423,123.303z"/>
					<path style="fill:#F9A86B;" d="M491.944,110.029c2.416,4.338,5.398,8.559,9.653,11.118c4.255,2.559,10.028,3.098,14.065,0.208
						c4.019-2.878,5.346-8.19,6.037-13.084c0.742-5.249,1.081-10.63,0.029-15.826c-1.052-5.196-3.617-10.23-7.827-13.452
						c-4.427-3.388-10.521-4.475-15.846-2.826C479.924,81.777,484.877,97.339,491.944,110.029z"/>
					<path style="fill:#5E3C77;" d="M478.63,85.521c0.497,1.291-0.677,2.559-1.148,3.859c-1,2.759,2.185,5.987,4.957,5.023
						c2.533-0.88,4.096-4.27,6.761-3.973c1.733,0.193,2.945,1.961,4.664,2.256c4.241,0.726,6.019-7.372,10.258-6.63
						c1.388,0.243,2.482,1.465,3.886,1.593c2.618,0.239,4.026-0.637,5.933,1.173c1.394,1.324,1.989,8.796,2.814,10.533
						c1.425,3.676,4.216-0.622,5.019,0c4.747,3.676,6.781-4.015,5.905-5.898c-0.876-1.883-2.917-4.138-1.758-6.84
						c0.433-1.009,1.098-2.294,0.544-3.241c-4.073-6.967,4.193-10.112-4.073-12.429c-3.348-3.147-3.518-5.036-7.497-2.739
						c-0.615,0.355-1.227,0.782-1.934,0.844c-1.28,0.113-2.307-0.969-3.21-1.883c-2.309-2.338-6.008-4.173-8.773-2.396
						c-1.202,0.773-1.289,3.462-5.985,2.626c-7.039-1.253-4.195,3.149-8.671,3.381c-2.766,0.143-4.349-0.785-6.714,0.854
						c-1.832,1.27-4.293,4.369-4.764,6.537C473.771,83.127,477.305,82.079,478.63,85.521z"/>
					<path style="fill:#FFAF66;" d="M522.378,90.644c-5.694,0.071-3.944,7.894-3.944,7.894c2.07,10.313,6.995,3.651,6.933,0.722
						C525.321,97.108,525.366,90.607,522.378,90.644z"/>
					<path style="fill:#5E3C77;" d="M497.223,103.032c0,0.809-0.656,1.464-1.465,1.464c-0.809,0-1.464-0.656-1.464-1.464
						s0.656-1.465,1.464-1.465C496.567,101.567,497.223,102.223,497.223,103.032z"/>
					<path style="fill:#5E3C77;" d="M510.109,99.356c0,0.809-0.656,1.464-1.465,1.464c-0.809,0-1.464-0.656-1.464-1.464
						s0.656-1.464,1.464-1.464C509.453,97.892,510.109,98.547,510.109,99.356z"/>
					<g>
						<path style="fill:#E99C5B;" d="M500.697,101.868c0.905,1.459,1.193,3.014,1.175,4.709c-0.013,1.24-0.399,2.549-0.319,3.768
							c0.128,1.938,2.451,2.048,3.968,1.655c0.839-0.217,0.55-1.294-0.189-1.393c-0.551-0.073-1.389,0.031-1.884-0.266
							c-0.605-0.364-0.375-0.689-0.339-1.359c0.053-0.999,0.084-2.003,0.005-3.001c-0.134-1.685-0.58-3.226-1.549-4.621
							C501.202,100.835,500.351,101.31,500.697,101.868L500.697,101.868z"/>
					</g>
					<path style="fill:#FFFFFF;" d="M511.624,112.327c-4.224,2.648-8.713,2.827-8.713,2.827c1.182,3.562,6.186,5.698,9.016,3.673
						C513.61,117.623,511.624,112.327,511.624,112.327z"/>
					<g>
						<path style="fill:#5E3C77;" d="M490.618,98.94c0.554-0.591,1.2-1.078,1.956-1.382c0.7-0.281,1.632-0.301,2.012-1.051
							c0.15-0.297,0.143-0.704-0.122-0.942c-0.846-0.762-2.017-0.187-2.849,0.333c-0.881,0.552-1.598,1.272-2.184,2.127
							C488.946,98.734,490.035,99.56,490.618,98.94L490.618,98.94z"/>
					</g>
					<g>
						<path style="fill:#5E3C77;" d="M504.561,93.431c1.217-0.301,2.435-0.466,3.69-0.463c0.967,0.002,1.93,0.231,2.665-0.526
							c0.187-0.193,0.259-0.541,0.1-0.776c-0.688-1.016-1.877-0.884-2.986-0.764c-1.346,0.146-2.643,0.443-3.919,0.897
							C503.095,92.16,503.49,93.696,504.561,93.431L504.561,93.431z"/>
					</g>
					<g>
						<path style="fill:#E99C5B;" d="M520.571,97.167c0.007-0.404,0.057-0.803,0.151-1.197c1.344-1.026,2.078-1.052,2.203-0.078
							c0.171,0.57,0.134,1.266,0.163,1.857c0.061,1.231,0.348,3.074-0.946,3.786c-0.553,0.304-0.065,1.126,0.492,0.843
							c1.162-0.591,1.487-1.777,1.574-3.004c0.096-1.352,0.208-3.342-0.442-4.593c-0.473-0.909-1.422-1.38-2.413-1.013
							c-1.422,0.526-1.681,2.069-1.696,3.4C519.649,97.759,520.538,97.751,520.571,97.167L520.571,97.167z"/>
					</g>
					<g>
						<path style="fill:#744E96;" d="M481.817,78.12c-2.201,0.236-2.465,3.13-0.478,3.95c0.846,0.349,1.681,0.352,2.181,1.257
							c0.357,0.647,0.447,1.357,1.028,1.87c0.57,0.503,1.723,0.854,1.983-0.108c0.028-0.102-0.034-0.245-0.149-0.263
							c-0.292-0.046-0.715-0.047-0.968-0.186c-0.55-0.303-0.628-0.891-0.822-1.404c-0.2-0.529-0.389-1.033-0.825-1.419
							c-0.477-0.422-1.032-0.523-1.622-0.706c-0.533-0.166-1.071-0.345-1.039-1.03c0.023-0.499,0.371-0.866,0.845-0.972
							C482.494,78.986,482.388,78.059,481.817,78.12L481.817,78.12z"/>
					</g>
					<g>
						<path style="fill:#744E96;" d="M489.177,77.411c-1.01,2.301,0.444,5.085,3.069,5.21c0.25,0.012,0.509-0.048,0.759-0.069
							c1.371-0.117,1.683,0.025,2.609,0.896c0.404,0.38,0.663,0.688,1.209,0.882c1.362,0.485,2.845-0.281,3.833-1.173
							c0.428-0.386-0.116-0.947-0.573-0.742c-0.34,0.153-0.707,0.433-1.054,0.542c-4.658,1.457-1.868-0.214-2.97-1.013
							c-0.499-0.362-0.608-0.549-1.243-0.677c-0.491-0.099-1.008,0.024-1.496,0.075c-1.911,0.2-4.214-1.015-3.207-3.384
							C490.38,77.326,489.458,76.771,489.177,77.411L489.177,77.411z"/>
					</g>
					<g>
						<path style="fill:#744E96;" d="M500.023,74.874c0.018-0.01,0.036-0.019,0.054-0.029c0.232-0.124,0.242-0.506,0-0.627
							c-0.24-0.12-0.358-0.142-0.615-0.062c-0.221,0.069-0.335,0.246-0.355,0.467c-0.093,0.987,0.473,1.674,1.344,2.089
							c0.615,0.293,1.244,0.329,1.911,0.344c0.478,0.011,1.368-0.109,1.784,0.116c0.866,0.468,1.144,1.571,1.255,2.426
							c0.15,1.147,0.307,2.426,1.448,3.01c0.882,0.451,1.857,0.301,2.279-0.626c0.159-0.349-0.183-0.797-0.563-0.563
							c-2.063,1.27-1.987-2.508-2.192-3.236c-0.17-0.604-0.428-1.165-0.912-1.585c-0.461-0.401-1.032-0.556-1.624-0.642
							c-0.49-0.071-0.985-0.01-1.476-0.031c-0.163,0-0.326,0-0.489,0c-0.773-0.023-1.4-0.37-1.883-1.043
							c-0.137-0.178-0.273-0.356-0.41-0.533c-0.009,0.019-0.018,0.037-0.027,0.056C499.409,74.711,499.706,75.043,500.023,74.874
							L500.023,74.874z"/>
					</g>
					<g>
						<path style="fill:#744E96;" d="M511.761,74.862c-0.341,1.54,0.149,3.201,1.438,4.171c0.825,0.621,3.416,1.484,3.952,0.141
							c0.047-0.119-0.032-0.265-0.133-0.327c-0.441-0.27-0.734-0.053-1.229-0.021c-0.659,0.042-1.313-0.124-1.885-0.449
							c-1.227-0.697-1.753-2.083-1.574-3.437C512.373,74.615,511.831,74.546,511.761,74.862L511.761,74.862z"/>
					</g>
					<g>
						<path style="fill:#744E96;" d="M514.951,84.043c0.459,0.818,1.101,1.508,1.899,2.008c0.612,0.383,1.663,0.992,2.309,0.476
							c0.124-0.099,0.14-0.325,0.058-0.453c-0.35-0.55-1.221-0.524-1.778-0.82c-0.728-0.387-1.313-0.945-1.751-1.641
							C515.397,83.147,514.681,83.561,514.951,84.043L514.951,84.043z"/>
					</g>
					<g>
						<path style="fill:#744E96;" d="M518.016,73.971c1.216-0.174,2.505,0.405,2.992,1.572c0.505,1.21-0.119,1.992-0.389,3.116
							c-0.102,0.423,0.351,0.793,0.739,0.568c1.439-0.831,1.275-3.216,0.463-4.429c-0.876-1.309-2.495-1.859-4-1.532
							C517.351,73.367,517.563,74.036,518.016,73.971L518.016,73.971z"/>
					</g>
				</g>
				<g>
					<path style="fill:#FFAF66;" d="M474.84,191.221c1.103,4.742,5.351,8.1,9.417,11.002c3.963,2.829,15.532,0,20.488-13.718
						c5.941-16.446,7.639-29.089,6.836-49.205c-0.083-2.068,2.697-4.145,2.602-6.831c-0.242-6.885-1.72-6.419-1.314-6.668
						c2.981-1.831,3.895-0.813,3.754-4.066c-2.44-3.089-12.045-2.973-16.534,4.12c-1.042,1.647-1.449,3.528-1.357,5.476
						c0.086,1.822,1.493,5.204,1.722,7.013c1.27,10.04-0.947,15.774-4.138,23.889c-3.375,8.583-4.779,11.071-6.635,18.854
						c0.358-4.379,0.064-11.678-0.545-16.414c-3.761,0.37-17.691-3.778-17.891,0.488C470.965,171.161,474.02,187.696,474.84,191.221
						z"/>
					<path style="fill:#E6335A;" d="M473.355,143.012c-3.432,10.286-3.924,21.428-3.179,32.245
						c7.524-0.233,12.592-0.39,20.116-0.623c0.264-4.117,2.064-23.13,1.122-30.617c-0.628-4.992,0.236-18.07-5.132-15.452
						C480.015,131.62,475.57,136.373,473.355,143.012z"/>
				</g>
				<g>
					<g>
						<path style="fill:#D32F5A;" d="M515.202,136.963c4.693,0.786,10.507-0.189,14.539-2.814c2.218-1.444,6.417-4.663,6.236-7.697
							c-0.033-0.553-0.779-0.658-0.958-0.13c-2.585,7.602-12.479,10.565-19.697,9.757
							C514.822,136.023,514.702,136.879,515.202,136.963L515.202,136.963z"/>
					</g>
					<g>
						<path style="fill:#D32F5A;" d="M555.146,161.07c-2.472-7.876-6.063-16.868-4.327-25.18c0.11-0.525-0.607-0.711-0.794-0.219
							c-2.974,7.818,1.877,18.188,4.415,25.593C554.591,161.706,555.288,161.523,555.146,161.07L555.146,161.07z"/>
					</g>
					<g>
						<path style="fill:#D32F5A;" d="M544.747,141.607c1.79,7,4.943,15.565,9.552,21.193c0.242,0.296,0.784-0.022,0.65-0.378
							c-1.185-3.146-3.051-6.02-4.475-9.071c-1.828-3.919-3.25-7.977-4.86-11.983C545.404,140.844,544.6,141.031,544.747,141.607
							L544.747,141.607z"/>
					</g>
					<g>
						<path style="fill:#D32F5A;" d="M491.868,166.798c0.784-7.052,1.553-14.88,0.05-21.878c-0.078-0.363-0.618-0.266-0.629,0.085
							c-0.228,7.286,0.517,14.478-0.107,21.793C491.144,167.242,491.82,167.23,491.868,166.798L491.868,166.798z"/>
					</g>
					<g>
						<path style="fill:#D32F5A;" d="M493.527,162.677c0.33-2.091,0.669-4.18,0.972-6.275c0.263-1.819,0.769-3.72,0.557-5.549
							c-0.045-0.39-0.526-0.459-0.674-0.091c-0.681,1.697-0.699,3.689-0.922,5.5c-0.259,2.101-0.481,4.206-0.713,6.31
							C492.7,163.012,493.457,163.119,493.527,162.677L493.527,162.677z"/>
					</g>
					<g>
						<path style="fill:#D32F5A;" d="M502.296,238.637c7.478,2.286,15.92,4.147,23.454,1.033c3.971-1.641,6.789-4.753,10.125-7.333
							c4.897-3.788,10.085-4.75,15.864-6.361c0.626-0.174,0.449-1.023-0.146-1.078c-7.475-0.692-14.497,4.017-19.849,8.691
							c-8.692,7.59-18.611,6.868-29.164,4.018C501.914,237.428,501.64,238.437,502.296,238.637L502.296,238.637z"/>
					</g>
					<g>
						<path style="fill:#D32F5A;" d="M509.794,219.418c9.177,6.309,23.358,2.603,27.256-8.308c0.188-0.527-0.551-0.736-0.836-0.352
							c-3.174,4.274-5.956,8.119-11.273,9.886c-5.058,1.681-10.253,0.812-14.639-2.094
							C509.758,218.189,509.265,219.054,509.794,219.418L509.794,219.418z"/>
					</g>
					<g>
						<path style="fill:#D32F5A;" d="M517.213,200.331c7.463-2.306,11.278-12.419,12.5-19.402c0.126-0.721-0.821-0.975-1.088-0.3
							c-2.575,6.52-4.111,16.19-11.635,18.894C516.489,199.703,516.69,200.493,517.213,200.331L517.213,200.331z"/>
					</g>
				</g>
				<g>
					<g>
						<path style="fill:#4C3363;" d="M507.035,258.176c3.413,4.062,8.806,8.369,14.314,8.805c0.359,0.028,0.524-0.545,0.188-0.696
							c-2.426-1.091-4.95-1.742-7.277-3.106c-2.53-1.483-4.736-3.36-6.676-5.553C507.25,257.248,506.717,257.797,507.035,258.176
							L507.035,258.176z"/>
					</g>
					<g>
						<path style="fill:#4C3363;" d="M520.244,255.387c0.627,2.247,1.039,4.815,2.037,6.925c0.181,0.383,0.878,0.21,0.824-0.223
							c-0.291-2.319-1.316-4.705-1.994-6.941C520.944,254.595,520.088,254.826,520.244,255.387L520.244,255.387z"/>
					</g>
					<g>
						<path style="fill:#4C3363;" d="M540.931,251.525c0.829,2.167,2.311,3.938,4.354,5.064c1.633,0.9,4.416,1.865,6.14,0.834
							c0.254-0.152,0.213-0.566-0.084-0.641c-1.796-0.455-3.494-0.109-5.275-0.998c-1.911-0.955-3.372-2.543-4.15-4.53
							C541.679,250.65,540.695,250.908,540.931,251.525L540.931,251.525z"/>
					</g>
					<g>
						<path style="fill:#4C3363;" d="M545.927,261.295c0.995,0.212,1.989,0.423,2.984,0.635c0.803,0.171,1.625,0.478,2.432,0.242
							c0.223-0.065,0.365-0.408,0.151-0.573c-0.674-0.521-1.477-0.547-2.302-0.688c-1.006-0.171-2.012-0.341-3.018-0.512
							C545.594,260.299,545.334,261.169,545.927,261.295L545.927,261.295z"/>
					</g>
				</g>
			</g>
			<g>
				<path style="fill:#E6335A;" d="M429.447,192.24c-0.822,2.761-1.87,5.855,3.203,8.957c2.154,1.317,4.479,2.492,5.523,4.885
					c1.529,3.507-1.875,6.965-4.035,10.025c-3.051,4.324-3.886,10.491-2.118,15.638c0.474,1.381,1.124,2.705,1.35,4.163
					c0.225,1.46,0.008,2.963-0.348,4.39c-1.651,6.627-6.47,12.143-12.338,14.122c-5.868,1.979-12.595,0.358-17.224-4.15
					c-5.919-0.152-11.708-3.504-15.252-8.83c-3.544-5.326,2.322-22.521-3.219-18.93c-7.875,5.103,1.205-7.69,1.172-12.9
					c-0.034-5.265-5.868-8.433-5.574-13.711c0.14-2.508,2.695-5.429,2.684-7.942c-0.017-3.74-2.474-7.866-2.534-11.575
					c-0.16-9.908,6.216-16.178,9.514-18.297c7.449-4.786,22.104-8.44,28.3,2.541c0,0,3.299-0.895,7.816,3.396
					C431.178,168.591,434.001,176.952,429.447,192.24z"/>
				<g>
					<path style="fill:#E89B5B;" d="M352.576,425.198c-1.535,4.018-5.134,6.88-8.866,9.017c-1.39,0.796-2.853,1.547-3.911,2.75
						c-1.057,1.203-1.619,3.008-0.891,4.434c9.328-2.164,18.708-4.107,28.129-5.826c0.545-0.099,1.164-0.251,1.417-0.743
						c0.238-0.463,0.044-1.022-0.153-1.504c-3.128-7.678-2.497-16.718-5.625-24.395c-0.161-0.396-4.097,0.55-4.44,0.296
						c-0.33-0.244-5.182-0.398-5.593-0.394C352.642,408.833,354.315,420.646,352.576,425.198z"/>
					<path style="fill:#E6335A;" d="M366.82,428.588c-9.708,5.678-13.249-1.289-14.244-3.39c-2.411-1.446-12.978,7.143-21.263,9.826
						c-2.982,0.966-4.743,7.4-1.307,8.162c9.314,0.306,25.839,0.688,39.989-0.762C371.702,441.399,369.44,427.055,366.82,428.588z"
						/>
					<path style="fill:#E89B5B;" d="M375.515,427.271c-1.535,4.018-5.134,6.88-8.866,9.017c-1.39,0.796-2.854,1.547-3.911,2.75
						c-1.057,1.203-1.619,3.007-0.891,4.434c9.328-2.164,18.708-4.107,28.129-5.826c0.545-0.099,1.164-0.251,1.417-0.743
						c0.238-0.463,0.044-1.022-0.153-1.504c-3.128-7.677-2.497-16.717-5.625-24.395c-0.161-0.396-4.097,0.55-4.44,0.296
						c-0.33-0.244-5.182-0.397-5.593-0.394C375.581,410.906,377.254,422.719,375.515,427.271z"/>
					<path style="fill:#EF4572;" d="M389.759,430.661c-9.708,5.678-13.249-1.289-14.244-3.39
						c-2.412-1.446-12.978,7.143-21.263,9.826c-2.982,0.966-4.743,7.4-1.307,8.162c9.313,0.306,25.839,0.688,39.989-0.762
						C394.641,443.472,392.38,429.128,389.759,430.661z"/>
					<path style="fill:#09212D;" d="M342.921,341.789c-1.01,16.905,5.367,53.282,8.475,74.173
						c3.835,0.474,11.053,1.325,14.841,0.566c-1.711-13.686-1.139-30.579-1.116-43.756c0.01-5.728-1.708-16.649,1.116-21.632
						c2.326-4.105,7.761-6.424,16.54-10.094s18.041-5.082,27.23-7.552c18.961-5.096,17.715-23.229,13.783-28.445
						c-10.79,2.046-34.585,3.192-45.495,3.561C354.655,325.595,343.318,335.142,342.921,341.789z"/>
					<path style="fill:#0C2D41;" d="M367.805,345.205c-0.852,3.553,5.1,51.489,6.735,71.576c3.022,1.021,10.12,0.25,13.27-0.252
						c1.178-20.078,3.923-28.864,3.923-42.536c0-9.386-3.013-21.234,0.913-22.957c12.734-5.587,41.894-10.271,51.519-19.981
						c5.605-5.654,7.195-12.435,3.659-22.201c-1.069-2.952-8.072-3.828-10.983-5.005c-2.479-1.003-5.282-0.372-7.878,0.269
						c-8.595,2.125-13.742,0.339-21.426,4.736C395.129,315.954,372.19,326.915,367.805,345.205z"/>
				</g>
				<path style="fill:#E89B5B;" d="M379.353,263.386c-5.806,2.369-22.731,6.476-28.971,5.857c-6.484-0.643-9.045-0.548-11.852,1.146
					c-1.324,0.799-2.765,8.096-0.899,7.397c0.722-0.271,2.683-4.35,2.947-3.689c0.325,5.494,2.727,8.723,2.235,1.334
					c-0.1-1.498,3.094-1.043,4.366-1.023c1.077,0.017-1.595,4.077-0.518,4.077c3.415,0,3.121-2.841,4.663-2.935
					c7.065-0.431,12.353,0.086,16.481,0.02c9.63-0.153,18.773-1.278,20.005-3.717c5.662-11.212-0.904-27.302-1.366-39.854
					c-0.379-10.304-10.865-12.631-10.17-0.551C377.236,248.18,379.639,251.968,379.353,263.386z"/>
				<path style="fill:#7C71CD;" d="M444.987,226.306c-0.309,6.325-1.387,10.223-3.505,16.19c-2.928,8.247-6.499,14.401-6.831,21.986
					c-1.23,28.052,10.003,30.954,13.174,44.372c-23.228,8.203-45.607,5.634-69.529-0.244c1.105-5.463,3.307-11.316,5.367-16.495
					c0.995-2.501,6.034-8.199,6.099-10.89c0.204-8.46,0.007-14.334-1.464-19.7c-1.857-6.776-15.288-7.635-5.611-23.562
					c0.791-1.301,0.754-2.171,1.038-5.411c0,0-3.659-0.451-7.451-1.105c0,0-1.15-9.851,4.301-12.779
					c4.005-2.151,9.117-4.186,16.074-5.067c9.881-1.252,9.778-1.086,19.705-0.137c1.728,0.165,12.899,1.263,17.784,2.642
					C442.399,218.44,445.197,222.001,444.987,226.306z"/>
				<g>
					<path style="fill:#FFAF66;" d="M427.875,234.193c-1.966,6.891-7.947,30.104-9.328,30.123
						c-18.321,0.258-28.091,4.848-39.52,4.447c-3.1-0.109-9.18-1.689-12.198-0.976c-3.018,0.713-4.622,6.194-4.229,9.271
						c1.626,2.684,2.848-4.581,3.578-5.042c0.428-0.27-0.414,5.174,0,5.693c1.626,2.033,1.626-2.138,2.218-6.017
						c0.132-0.869,1.552,7.613,2.173,6.795c0.628-0.827,0.368-5.271,0.976-5.331c2.804-0.28,1.301,3.075,9.029,2.587
						c15.586-0.984,30.336,6.977,44.155,2.8c4.391-1.328,7.215-7.486,7.807-8.802c2.081-4.627,10.397-24.216,12.345-28.899
						c1.948-4.684,2.517-13.852-0.96-17.545C436.382,215.288,430.365,225.464,427.875,234.193z"/>
					<path style="fill:#7C71CD;" d="M444.591,241.476c2.721-5.411,4.589-12.651,2.421-16.463c-2.168-3.812-3.632-7.314-12.874-8.905
						c-8.063-1.388-7.63,16.622-7.772,20.198C438.949,231.276,442.237,240.644,444.591,241.476z"/>
				</g>
				<g>
					<g>
						<path style="fill:#6962BC;" d="M385.136,231.303c0.795-2.814,1.402-6.864,0.27-9.636c-0.129-0.316-0.569-0.276-0.599,0.081
							c-0.122,1.446,0.21,2.945,0.197,4.408c-0.015,1.675-0.245,3.32-0.5,4.973C384.441,231.535,385.018,231.72,385.136,231.303
							L385.136,231.303z"/>
					</g>
					<g>
						<path style="fill:#6962BC;" d="M384.224,229.556c-0.187-1.442-0.191-3.045-0.841-4.365c-0.098-0.199-0.468-0.168-0.502,0.066
							c-0.21,1.462,0.266,2.973,0.534,4.409C383.499,230.115,384.283,230.018,384.224,229.556L384.224,229.556z"/>
					</g>
					<g>
						<path style="fill:#6962BC;" d="M425.945,233.748c1.09-1.166,0.778-2.776,0.86-4.277c0.141-2.56,0.982-4.925,1.286-7.435
							c0.036-0.295-0.408-0.381-0.54-0.146c-0.853,1.517-1.13,3.292-1.359,5.004c-0.264,1.968,0.302,4.78-0.642,6.55
							C425.42,233.687,425.743,233.964,425.945,233.748L425.945,233.748z"/>
					</g>
					<g>
						<path style="fill:#6962BC;" d="M423.315,226.639c-0.027,1.383,0.038,2.754,0.226,4.125c0.148,1.08,0.227,2.32,0.859,3.23
							c0.228,0.328,0.732,0.21,0.753-0.204c0.053-1.057-0.412-2.121-0.604-3.162c-0.243-1.32-0.361-2.648-0.395-3.989
							C424.139,226.1,423.325,226.098,423.315,226.639L423.315,226.639z"/>
					</g>
					<g>
						<path style="fill:#6962BC;" d="M389.784,222.036c0.14,5.445,3.517,9.66,8.843,10.994c5.609,1.404,14.592-0.039,17.475-5.635
							c0.19-0.368-0.276-0.762-0.587-0.453c-7.041,7.025-24.036,8.33-25.03-4.906C390.452,221.592,389.772,221.58,389.784,222.036
							L389.784,222.036z"/>
					</g>
					<g>
						<path style="fill:#6962BC;" d="M395.893,245.995c-1.766,9.702,13.946,15.26,19.822,8.082c0.282-0.344-0.076-0.932-0.508-0.659
							c-2.877,1.823-5.516,3.128-9.073,2.573c-4.459-0.696-10.164-4.407-9.285-9.733
							C396.951,245.638,396.007,245.364,395.893,245.995L395.893,245.995z"/>
					</g>
					<g>
						<path style="fill:#6962BC;" d="M388.142,257.17c1.978,1.208,5.813,1.407,7.102-0.96c0.192-0.353-0.187-0.703-0.532-0.532
							c-0.933,0.464-1.657,1.098-2.723,1.295c-1.184,0.219-2.342-0.008-3.377-0.607C388.092,256.066,387.632,256.859,388.142,257.17
							L388.142,257.17z"/>
					</g>
					<g>
						<path style="fill:#6962BC;" d="M390.768,299.611c10.685,3.96,23.6,5.29,34.476,1.201c0.53-0.199,0.329-0.966-0.235-0.853
							c-11.805,2.37-22.473,3.002-34.074-0.951C390.55,298.877,390.395,299.473,390.768,299.611L390.768,299.611z"/>
					</g>
					<g>
						<path style="fill:#6962BC;" d="M398.309,296.843c4.077,1.467,9.147,2.881,13.502,2.025c0.318-0.062,0.337-0.616,0-0.662
							c-4.548-0.612-8.883-0.533-13.347-1.922C398.103,296.173,397.962,296.719,398.309,296.843L398.309,296.843z"/>
					</g>
				</g>
				<g>
					<path style="fill:#E89B5B;" d="M407.347,228.477c-3.733,1.123-8.012,1.262-11.306-0.822s-4.983-6.878-2.783-10.096
						c0.984-1.439,2.581-2.413,3.391-3.957c0.595-1.136,0.698-2.458,0.755-3.739c0.261-5.949-3.276-16.173,1.413-18.868
						c4.606-2.647,14.191-1.087,15.097,3.437c0.811,4.049-0.976,15.179,2.44,19.033
						C421.535,219.312,416.849,225.619,407.347,228.477z"/>
					<path style="fill:#FFAF66;" d="M401.635,206.548c6.831,0.14,13.87-7.438,15.713-12.833c0.795-2.325,1.557-4.669,2.035-7.079
						c1.284-6.466,0.358-13.546-3.456-18.923c-8.088-11.4-28.309-8.866-29.71,6.298
						C385.322,183.697,389.463,206.299,401.635,206.548z"/>
					<path style="fill:#E6335A;" d="M386.84,183.503c4.275-0.126,8.06-2.74,11.255-5.582c3.195-2.843,6.172-6.073,10.03-7.919
						c0.532-0.255,1.11-0.486,1.695-0.413c0.626,0.077,1.161,0.492,1.587,0.957c2.69,2.931,4.189,6.45,5.434,10.229
						c0.701,2.128-0.129,5.12,1.662,6.465c0.296,0.222,0.632,0.438,1.001,0.421c0.429-0.019,0.775-0.344,1.063-0.661
						c2.911-3.211,4.092-7.593,5.024-11.825c0.591-2.683,1.119-5.481,0.487-8.155c-0.631-2.674-2.738-5.193-5.475-5.428
						c-1.938-0.166-4.053,0.774-5.749-0.179c-0.892-0.501-1.445-1.425-2.132-2.183c-4.592-5.059-18.112-1.743-23.206,2.804
						C383.783,167.152,385.796,183.533,386.84,183.503z"/>
					<path style="fill:#FFAF66;" d="M423.79,187.978c-0.015-2.112-0.365-4.683-2.637-5.532c-2.019-0.754-4.446,0.488-5.406,2.177
						c-0.96,1.689-0.416,8.591,1.197,9.143C422.21,195.57,423.796,188.811,423.79,187.978z"/>
					<circle style="fill:#0C2D41;" cx="404.977" cy="184.995" r="1.439"/>
					<path style="fill:#0C2D41;" d="M393.704,184.934c0,0.795-0.644,1.439-1.439,1.439c-0.795,0-1.439-0.644-1.439-1.439
						s0.644-1.439,1.439-1.439C393.06,183.495,393.704,184.139,393.704,184.934z"/>
					<g>
						<path style="fill:#E89B5B;" d="M396.876,184.657c-0.581,1.031-0.484,1.988-0.488,3.132c-0.003,1.137-0.171,1.597-0.815,2.542
							c-0.18,0.264-0.434,0.477-0.507,0.811c-0.275,1.256,1.6,2.941,2.428,3.67c0.834,0.734,1.866-0.628,0.924-1.197
							c-0.2-0.121-0.393-0.137-0.621-0.164c-0.421-0.049-0.63,0.417-0.573,0.753c0.03,0.174,0.062,0.304,0.151,0.454
							c0.399-0.308,0.798-0.616,1.197-0.924c-0.33-0.3-0.632-0.64-0.925-0.977c-0.35-0.404-0.994-0.931-0.872-1.527
							c0.036-0.175,0.429-0.477,0.537-0.65c0.98-1.568,0.323-3.761,0.566-5.5C397.959,184.509,397.209,184.066,396.876,184.657
							L396.876,184.657z"/>
					</g>
					<g>
						<path style="fill:#E6335A;" d="M402.584,178.318c1.551-0.288,3.095-0.023,4.65-0.007c0-0.342,0-0.684,0-1.025
							c-0.017,0.001-0.035,0.001-0.052,0.001c-0.561,0.006-0.699,0.854-0.134,0.994c0.017,0.005,0.033,0.009,0.051,0.012
							c0.641,0.141,0.913-0.815,0.273-0.989c-1.538-0.417-3.502-0.236-5.029,0.132C401.762,177.575,402.012,178.424,402.584,178.318
							L402.584,178.318z"/>
					</g>
					<g>
						<path style="fill:#E89B5B;" d="M395.262,197.97c1.363,0.857,2.893,1.2,4.486,0.934c1.347-0.225,3.2-0.872,3.604-2.32
							c0.139-0.497-0.331-0.936-0.816-0.816c-1.046,0.258-1.796,1.095-2.88,1.356c-1.23,0.296-2.554,0.198-3.702-0.338
							C395.164,196.417,394.503,197.493,395.262,197.97L395.262,197.97z"/>
					</g>
					<g>
						<path style="fill:#FFFFFF;" d="M418.794,193.258c1.31,0,1.312-2.036,0-2.036C417.484,191.222,417.482,193.258,418.794,193.258
							L418.794,193.258z"/>
					</g>
					<g>
						<path style="fill:#E89B5B;" d="M418.488,185.286c1.313-1.538,2.611,0.86,2.865,1.959c0.266,1.147,0.267,2.404-0.661,3.246
							c-0.34,0.309,0.114,0.919,0.499,0.647c1.677-1.187,1.352-3.786,0.653-5.458c-0.693-1.657-2.857-2.657-4.099-0.966
							C417.43,185.143,418.14,185.693,418.488,185.286L418.488,185.286z"/>
					</g>
					<g>
						<path style="fill:#F7527E;" d="M384.073,179.887c3.566-0.669,6.84-2.118,9.507-4.631c1.538-1.449,2.661-3.246,4.329-4.557
							c2.402-1.888,5.138-2.182,8.021-2.779c0.522-0.108,0.415-1.004-0.128-0.943c-3.245,0.362-6.547,1.117-9.02,3.376
							c-1.735,1.585-2.973,3.563-4.804,5.071c-2.392,1.971-5.073,3.113-8.108,3.728C383.388,179.25,383.594,179.977,384.073,179.887
							L384.073,179.887z"/>
					</g>
					<g>
						<path style="fill:#F7527E;" d="M384.749,170.516c2.981-1.23,5.256-3.239,7.864-5.071c4.635-3.256,9.302-3.366,14.732-2.635
							c0.784,0.106,0.941-0.975,0.146-1.078c-3.94-0.511-8.134-0.658-11.846,1.001c-4.087,1.826-6.998,5.465-11.094,7.309
							C384.285,170.162,384.477,170.629,384.749,170.516L384.749,170.516z"/>
					</g>
					<g>
						<path style="fill:#F7527E;" d="M394.876,159.19c5.094-1.005,9.868-1.624,14.869,0.089c0.492,0.168,0.842-0.633,0.358-0.85
							c-4.915-2.21-10.349-0.912-15.345,0.335C394.48,158.833,394.599,159.244,394.876,159.19L394.876,159.19z"/>
					</g>
					<g>
						<path style="fill:#F7527E;" d="M413.631,169.568c1.627,0.679,2.976,1.807,3.954,3.274c0.817,1.224,0.958,2.579,1.547,3.867
							c0.103,0.226,0.499,0.173,0.543-0.071c0.279-1.548-0.735-3.416-1.64-4.609c-1.087-1.432-2.559-2.448-4.238-3.063
							C413.414,168.824,413.27,169.417,413.631,169.568L413.631,169.568z"/>
					</g>
					<g>
						<path style="fill:#F7527E;" d="M416.404,166.478c2.153,0.984,3.996,2.447,5.357,4.397c1.191,1.706,1.549,3.663,2.462,5.475
							c0.136,0.27,0.482,0.103,0.511-0.139c0.542-4.501-4.362-8.835-8.054-10.389C416.309,165.667,416.035,166.309,416.404,166.478
							L416.404,166.478z"/>
					</g>
					<g>
						<path style="fill:#F7527E;" d="M418.414,163.991c3.275,0.547,5.958,2.583,7.832,5.278c1.617,2.326,2.256,5.109,3.739,7.466
							c0.203,0.323,0.64,0.101,0.585-0.247c-0.936-5.946-5.881-12.371-12.074-13.111
							C418.151,163.335,418.067,163.933,418.414,163.991L418.414,163.991z"/>
					</g>
					<g>
						<path style="fill:#F7527E;" d="M423.687,194.986c-0.489,2.235-0.964,4.796,0.663,6.695c0.802,0.936,2,1.327,2.986,2.011
							c2.432,1.688,2.958,3.914,3.242,6.646c0.02,0.196,0.299,0.259,0.359,0.049c0.564-1.96-0.074-4.139-1.256-5.771
							c-0.735-1.015-1.587-1.516-2.593-2.209c-1.652-1.138-2.731-1.714-2.972-3.97c-0.115-1.079,0.12-2.192,0.305-3.248
							C424.506,194.713,423.793,194.501,423.687,194.986L423.687,194.986z"/>
					</g>
					<g>
						<path style="fill:#F7527E;" d="M418.867,199.74c-0.875,1.536-0.796,3.204-0.057,4.792c0.758,1.629,2.457,3.905,4.1,4.659
							c0.191,0.087,0.411-0.056,0.358-0.275c-0.292-1.214-1.377-2.031-2.159-2.963c-1.331-1.585-2.434-3.673-1.386-5.712
							C420.013,199.676,419.185,199.182,418.867,199.74L418.867,199.74z"/>
					</g>
					<g>
						<path style="fill:#F7527E;" d="M385.255,195.654c-0.633,1.997-0.248,3.718,0.764,5.549c1.697,3.07,5.937,7.104,2.17,10.443
							c-0.338,0.299,0.117,0.909,0.49,0.635c1.618-1.19,2.188-3.025,1.768-5.02c-0.891-4.229-5.716-6.59-4.544-11.428
							C386.004,195.411,385.385,195.242,385.255,195.654L385.255,195.654z"/>
					</g>
					<g>
						<path style="fill:#F7527E;" d="M393.257,211.587c0.335-0.598,0.583-1.238,0.695-1.917c0.082-0.498,0.208-1.202-0.3-1.497
							c-0.081-0.047-0.213-0.061-0.293,0c-0.387,0.296-0.324,0.705-0.367,1.163c-0.06,0.631-0.231,1.229-0.512,1.797
							C392.226,211.647,392.972,212.097,393.257,211.587L393.257,211.587z"/>
					</g>
				</g>
			</g>
			<g>
				<rect x="144.649" y="280.961" style="fill:#24283F;" width="390.032" height="11.154"/>
				<rect x="494.877" y="280.961" style="fill:#373E5B;" width="39.804" height="11.154"/>
				<rect x="149.54" y="292.115" style="fill:#56AECE;" width="8.457" height="154.741"/>
				<rect x="169.057" y="292.115" style="fill:#4198AF;" width="8.457" height="143.356"/>
				<rect x="500.846" y="292.115" style="fill:#56AECE;" width="8.457" height="154.741"/>
				<rect x="520.363" y="292.115" style="fill:#4198AF;" width="8.457" height="143.356"/>
			</g>
			<g>
				<path style="fill:#AEAEAF;" d="M362.238,194.27H247.81c-2.175,0-3.938,1.763-3.938,3.938v62.152
					c0,2.175,1.763,3.938,3.938,3.938h114.428c2.175,0,3.938-1.763,3.938-3.938v-62.152
					C366.176,196.033,364.413,194.27,362.238,194.27z"/>
				<path style="fill:#BDBEC0;" d="M362.238,194.27h-92.862c-2.175,0-3.938,1.763-3.938,3.938v32.598
					c0,11.178,9.061,20.239,20.239,20.239h76.56c2.175,0,3.938-1.763,3.938-3.938v-48.9
					C366.176,196.033,364.413,194.27,362.238,194.27z"/>
				<g>
					<path style="fill:#80878E;" d="M305.026,239.325c-3.413,0-6.18,2.767-6.18,6.18v35.456h12.361v-35.456
						C311.206,242.092,308.439,239.325,305.026,239.325z"/>
					<rect x="303.074" y="277.058" style="fill:#BDBEC0;" width="70.912" height="3.903"/>
					<rect x="281.93" y="277.058" style="fill:#64676C;" width="46.19" height="3.903"/>
				</g>
			</g>
			<g>
				<path style="fill:#92D8FE;" d="M393.241,95.897c0-27.033-21.915-48.948-48.948-48.948c-27.033,0-48.948,21.915-48.948,48.948
					c0,27.033,21.915,48.948,48.948,48.948c4.147,0,8.172-0.521,12.018-1.492c4.091,7.629,11.999,12.338,21.981,8.943
					c0,0-8.147-5.603-8.963-14.339C383.647,129.416,393.241,113.78,393.241,95.897z"/>
				<g>
					<g>
						<path style="fill:#E6335A;" d="M356.332,98.679c0,2.874-1.168,5.482-3.052,7.361c-1.885,1.885-4.487,3.052-7.361,3.052
							c-5.749,0-10.413-4.664-10.413-10.413c0-5.755,4.664-10.413,10.413-10.413l1.067,0.053h0.018
							c2.234,0.231,4.261,1.174,5.85,2.59C354.987,92.812,356.332,95.585,356.332,98.679z"/>
						<path style="fill:#FFF252;" d="M352.853,90.909l-6.934,7.77V88.266l1.067,0.053h0.018
							C349.238,88.55,351.265,89.493,352.853,90.909z"/>
						<path style="fill:#7C71CD;" d="M356.332,98.679c0,2.874-1.168,5.482-3.052,7.361l-7.361-7.361l6.934-7.77
							C354.987,92.812,356.332,95.585,356.332,98.679z"/>
					</g>
					<g>
						<path style="fill:#E6335A;" d="M329.883,98.679c0,2.874-1.168,5.482-3.052,7.361c-1.387,1.387-3.165,2.388-5.156,2.815
							c-0.711,0.154-1.452,0.237-2.205,0.237c-5.749,0-10.413-4.664-10.413-10.413c0-5.755,4.664-10.413,10.413-10.413l1.067,0.053
							h0.018c2.234,0.231,4.261,1.174,5.85,2.59C328.538,92.812,329.883,95.585,329.883,98.679z"/>
						<path style="fill:#7C71CD;" d="M329.884,98.678c0,2.874-1.168,5.482-3.052,7.361l-7.361-7.361l6.934-7.77
							C328.538,92.811,329.884,95.584,329.884,98.678z"/>
						<path style="fill:#FFF252;" d="M326.404,90.909l-6.934,7.77h-10.413c0-5.755,4.664-10.413,10.413-10.413l1.067,0.053h0.018
							C322.789,88.55,324.816,89.493,326.404,90.909z"/>
						<path style="fill:#5E3C77;" d="M326.831,106.04c-1.387,1.387-3.165,2.388-5.156,2.815c-0.853-3.912-2.205-10.176-2.205-10.176
							L326.831,106.04z"/>
					</g>
					<g>
						<path style="fill:#7C71CD;" d="M372.224,88.266c2.874,0,5.482,1.168,7.361,3.052c1.387,1.387,2.389,3.165,2.815,5.156
							c0.154,0.711,0.237,1.452,0.237,2.205c0,5.749-4.664,10.413-10.413,10.413c-5.755,0-10.413-4.664-10.413-10.413l0.053-1.067
							v-0.018c0.231-2.234,1.173-4.261,2.59-5.85C366.357,89.611,369.13,88.266,372.224,88.266z"/>
						<path style="fill:#E6335A;" d="M372.223,88.266c2.874,0,5.482,1.167,7.361,3.052l-7.361,7.361l-7.77-6.934
							C366.356,89.611,369.13,88.266,372.223,88.266z"/>
						<path style="fill:#5E3C77;" d="M364.454,91.745l7.77,6.934v10.413c-5.755,0-10.413-4.664-10.413-10.413l0.053-1.067v-0.018
							C362.096,95.36,363.038,93.333,364.454,91.745z"/>
						<path style="fill:#FFF252;" d="M379.585,91.318c1.387,1.387,2.389,3.165,2.815,5.156c-3.912,0.853-10.176,2.205-10.176,2.205
							L379.585,91.318z"/>
					</g>
					<g>
						<path style="fill:#FFFFFF;" d="M369.42,127.84c-13.591-0.133-27.245-0.03-40.858,0.233c0.004-5.28-0.328-10.568-0.999-15.796
							c-0.058-0.452-0.746-0.485-0.732,0c0.149,5.27,0.399,10.547,0.696,15.818c-2.873,0.057-5.748,0.112-8.616,0.184
							c-0.431,0.011-0.433,0.67,0,0.671c2.889,0.008,5.778,0.019,8.666,0.029c0.098,1.685,0.177,3.373,0.29,5.055
							c0.024,0.351,0.531,0.355,0.549,0c0.083-1.681,0.128-3.366,0.142-5.051c13.621,0.047,27.24,0.101,40.861,0.108
							C370.224,129.091,370.225,127.848,369.42,127.84z"/>
						<path style="fill:#FFFFFF;" d="M330.136,124.051c1.478-1.414,3.231-3.651,5.266-4.227c4.334-1.226,3.884,2.651,6.385,3.991
							c2.85,1.528,4.23-2.209,5.818-4.009c1.725-1.955,3.895-2.825,6.107-0.68c0.474,0.459,0.533,1.206,1.141,1.59
							c0.635,0.401,1.222,0.359,1.955,0.31c3.303-0.218,7.051-2.827,10.101-4.953c-0.111,0.168-0.23,0.331-0.34,0.499
							c-0.526,0.806-1.309,1.767-1.451,2.74c-0.067,0.46,0.494,0.956,0.879,0.512c0.66-0.761,1.038-1.813,1.551-2.68
							c0.572-0.966,1.185-1.901,1.869-2.791c0.25-0.326-0.087-0.866-0.478-0.833c-2.216,0.187-4.42,0.466-6.627,0.732
							c-0.658,0.079-0.682,1.115,0,1.052c1.468-0.135,2.935-0.275,4.4-0.429c-2.424,1.541-4.888,3.083-7.501,4.234
							c-3.158,1.391-3.393,0.349-5.347-1.785c-2.197-2.4-4.725-1.122-6.507,1.039c-2.731,3.311-3.643,6.065-7.308,1.83
							c-0.768-0.887-1.139-1.71-2.424-1.932c-2.993-0.518-6.549,3.205-8.082,5.334C329.286,123.951,329.836,124.337,330.136,124.051
							z"/>
					</g>
					<g>
						<path style="fill:#FFFFFF;" d="M331.456,72.623c-2.716,0-5.566-0.24-8.262,0.008c-0.491,0.045-0.556,0.632-0.198,0.825
							c-0.124,0.756-0.206,1.516-0.257,2.28c-0.021,0.041-0.022,0.082-0.008,0.129c-0.135,2.165-0.053,4.351-0.11,6.513
							c-0.007,0.254,0.21,0.427,0.445,0.445c2.862,0.216,5.749,0.127,8.62,0.15c0.234,0.002,0.429-0.199,0.431-0.431
							c0.024-3.16,0.147-6.321-0.212-9.469C331.878,72.831,331.722,72.623,331.456,72.623z M323.33,73.522
							c0.132,0.011,0.268,0.011,0.401,0.021c1.584,1.613,3.062,3.316,4.542,5.023c-0.659-0.004-1.319-0.002-1.976,0.019
							c-0.338-0.51-0.833-0.937-1.277-1.335c-0.543-0.486-1.112-0.944-1.684-1.397C323.32,75.076,323.318,74.299,323.33,73.522z
							 M324.59,77.68c0.303,0.303,0.607,0.64,0.936,0.94c-0.708,0.037-1.411,0.101-2.104,0.198c-0.027-0.77-0.048-1.54-0.068-2.31
							C323.769,76.894,324.188,77.278,324.59,77.68z M323.442,79.442c2.579,0.199,5.229,0.004,7.82,0.008
							c-0.003,0.886-0.006,1.771-0.006,2.657c-2.592,0-5.164-0.057-7.754-0.159C323.491,81.112,323.47,80.277,323.442,79.442z
							 M329.494,73.555c0.336,0.53,0.675,1.058,1.048,1.562c0.207,0.28,0.419,0.615,0.669,0.894
							c0.033,0.864,0.048,1.728,0.051,2.593c-0.035,0-0.069-0.001-0.104-0.001c-0.632-0.676-1.134-1.656-1.667-2.385
							c-0.659-0.902-1.366-1.766-2.097-2.609C328.095,73.595,328.796,73.573,329.494,73.555z M330.865,74.651
							c-0.273-0.358-0.519-0.735-0.773-1.106c0.318-0.007,0.635-0.013,0.95-0.016c0.049,0.488,0.088,0.977,0.117,1.465
							C331.053,74.878,330.95,74.762,330.865,74.651z M327.137,73.613c1.295,1.569,2.447,3.218,3.454,4.985
							c-0.485-0.007-0.973-0.015-1.462-0.022c-1.595-1.751-3.275-3.413-5.02-5.013C325.108,73.617,326.119,73.632,327.137,73.613z"
							/>
						<path style="fill:#FFFFFF;" d="M343.865,61.238c-2.753,0.049-5.51-0.129-8.262-0.027c-0.504,0.019-0.56,0.68-0.17,0.845
							c-0.622,6.971-0.561,14.095-0.369,21.084c0.007,0.242,0.184,0.383,0.41,0.41c2.881,0.35,5.721,0.38,8.62,0.398
							c0.234,0.002,0.43-0.199,0.431-0.431c0.03-7.28,0.242-14.596-0.246-21.865C344.265,61.432,344.102,61.234,343.865,61.238z
							 M335.864,74.182c0.275,0.461,0.561,0.917,0.833,1.369c0.227,0.376,0.499,0.791,0.82,1.141
							c-0.546,0.037-1.087,0.093-1.624,0.167c0.003-0.13,0.004-0.255,0.003-0.374C335.883,75.717,335.875,74.949,335.864,74.182z
							 M338.208,76.655c-0.235-0.612-0.631-1.205-0.958-1.744c-0.405-0.667-0.823-1.389-1.403-1.922
							c-0.014-1.003-0.03-2.006-0.042-3.009c0.588,1.116,1.188,2.225,1.846,3.303c0.665,1.089,1.309,2.323,2.142,3.33
							C339.264,76.617,338.735,76.632,338.208,76.655z M340.728,76.615c-0.599-1.329-1.585-2.526-2.37-3.744
							c-0.85-1.32-1.713-2.631-2.567-3.949c-0.012-1.039-0.014-2.078-0.022-3.117c2.232,3.59,4.473,7.163,6.575,10.829
							C341.808,76.627,341.269,76.618,340.728,76.615z M343.177,76.647c-2.063-4.052-4.844-7.745-7.411-11.485
							c-0.007-1.021-0.019-2.043-0.021-3.065c0.283,0.009,0.566,0.012,0.849,0.016c1.588,2.313,2.964,4.784,4.384,7.2
							c0.647,1.101,1.588,3.813,2.733,4.574c0.044,0.889,0.112,1.827,0.158,2.768C343.639,76.653,343.408,76.651,343.177,76.647z
							 M343.537,64.352c-0.027,0.916-0.017,1.837,0.002,2.759c-0.395-0.696-0.883-1.363-1.285-1.997
							c-0.658-1.036-1.372-2.036-2.092-3.029c0.539-0.01,1.079-0.019,1.618-0.022C344.009,62.05,343.602,62.133,343.537,64.352z
							 M339.501,62.097c0.71,1.127,1.405,2.263,2.093,3.403c0.63,1.044,1.148,2.303,1.984,3.197c0.039,1.219,0.08,2.438,0.088,3.651
							c-0.004-0.006-0.008-0.012-0.012-0.018c-0.728-1.21-1.457-2.419-2.196-3.621c-1.382-2.248-2.808-4.485-4.409-6.586
							C337.866,62.125,338.684,62.112,339.501,62.097z M343.66,80.983c-0.415,1.826-0.794,1.875-2.438,2.11
							c-0.708,0.101-3.512,0.154-4.133-0.165c-1.625-0.835-1.335-3.462-1.224-5.438c2.65,0.203,5.375-0.013,8.034,0.005
							C343.933,78.733,343.898,79.94,343.66,80.983z"/>
						<path style="fill:#FFFFFF;" d="M356.275,64.15c-2.752,0.054-5.512-0.124-8.261-0.012c-0.503,0.021-0.56,0.677-0.172,0.844
							c-0.563,5.994-0.559,12.147-0.396,18.157c0.007,0.256,0.197,0.416,0.44,0.44c2.888,0.292,5.72,0.347,8.62,0.369
							c0.234,0.002,0.43-0.199,0.431-0.431c0.027-6.308,0.204-12.639-0.23-18.937C356.689,64.352,356.521,64.145,356.275,64.15z
							 M355.637,69.817c-0.419-0.797-1.19-1.553-1.721-2.19c-0.745-0.894-1.519-1.762-2.323-2.604
							c0.606-0.013,1.212-0.025,1.817-0.03c0.002,0.04,0.012,0.081,0.043,0.123c0.838,1.159,1.618,2.372,2.559,3.452
							c0.014,0.418,0.024,0.836,0.034,1.254C355.91,69.82,355.774,69.819,355.637,69.817z M355.786,65.001
							c0.455,0.338,0.069,0.406,0.119,1.205c0.03,0.476,0.044,0.954,0.065,1.431c-0.727-0.839-1.347-1.773-2.004-2.666
							C354.549,64.919,355.493,64.784,355.786,65.001z M351,65.035c0.857,0.897,1.674,1.831,2.462,2.788
							c0.499,0.606,0.952,1.364,1.497,1.984c-0.713-0.011-1.431-0.022-2.151-0.024c-0.479-0.898-1.206-1.765-1.765-2.586
							c-0.519-0.763-1.087-1.475-1.711-2.148C349.887,65.052,350.443,65.046,351,65.035z M348.176,67.456
							c0.417,0.576,0.814,1.166,1.227,1.745c0.152,0.214,0.311,0.444,0.484,0.661c-0.568,0.039-1.13,0.098-1.688,0.177
							C348.191,69.179,348.183,68.318,348.176,67.456z M350.745,69.818c-0.352-0.447-0.758-0.862-1.092-1.322
							c-0.478-0.659-0.947-1.321-1.466-1.948c-0.006-0.007-0.013-0.009-0.019-0.015c-0.004-0.502-0.01-1.005-0.013-1.508
							c0.163,0.006,0.327,0.007,0.491,0.01c0.898,0.931,1.621,1.975,2.319,3.06c0.355,0.551,0.695,1.163,1.115,1.689
							C351.633,69.788,351.189,69.8,350.745,69.818z M354.616,83.09c-0.776,0.215-2.06,0.092-2.888-0.018
							c-1.258,0.107-2.378-0.294-3.359-1.203c-0.005-0.432-0.01-0.864-0.016-1.296c-0.482-2.53-0.095-5.495-0.131-8.077
							c-0.009-0.613-0.01-1.227-0.017-1.84c2.59,0.206,5.252,0.008,7.856,0.011c0.033,2.213,0.018,4.427,0.012,6.635
							C356.067,79.315,356.883,82.462,354.616,83.09z"/>
						<path style="fill:#FFFFFF;" d="M369.127,66.532c-0.014-0.235-0.192-0.448-0.443-0.443c-2.751,0.058-5.515-0.123-8.262,0.001
							c-0.503,0.023-0.56,0.675-0.173,0.844c-0.522,5.374-0.425,10.812-0.419,16.206c0,0.267,0.213,0.441,0.463,0.463
							c2.882,0.259,5.728,0.321,8.62,0.345c0.234,0.002,0.43-0.199,0.431-0.431C369.371,77.85,369.463,72.193,369.127,66.532z
							 M360.646,74.832c-0.002-0.14-0.002-0.279-0.004-0.419c0.363,0.389,0.727,0.779,1.09,1.168
							c0.33,0.353,0.653,0.741,1.006,1.087c-0.691,0.037-1.376,0.099-2.053,0.192C360.671,76.185,360.656,75.509,360.646,74.832z
							 M363.638,76.631c-0.396-0.565-0.953-1.036-1.437-1.519c-0.523-0.523-1.046-1.046-1.569-1.569
							c-0.012-0.921-0.02-1.842-0.029-2.763c0.914,1.174,1.817,2.358,2.686,3.565c0.508,0.705,0.969,1.55,1.526,2.269
							C364.423,76.615,364.03,76.62,363.638,76.631z M365.712,76.616c-0.528-1.034-1.417-2.007-2.093-2.896
							c-0.944-1.243-1.974-2.408-3.022-3.563c-0.009-1.045-0.022-2.091-0.032-3.136c2.33,3.119,4.296,6.67,6.836,9.619
							C366.841,76.63,366.277,76.621,365.712,76.616z M365.624,66.941c0.039,0,0.095-0.007,0.139-0.009
							c0.435,0.805,0.88,1.595,1.396,2.355c0.366,0.54,0.773,1.263,1.337,1.654c-0.021,0.48-0.041,0.934-0.034,1.31
							c0.008,0.405,0.002,0.811,0.006,1.217c-0.666-1.063-1.557-2.068-2.265-3.034c-0.848-1.159-1.706-2.309-2.569-3.457
							C364.298,66.962,364.961,66.946,365.624,66.941z M367.795,66.956c0.25,0.103,0.388,0.143,0.478,0.162
							c-0.053,0.037-0.084,0.136,0.013,0.394c0.198,0.53,0.249,1.249,0.249,1.999c-0.257-0.301-0.53-0.59-0.745-0.874
							c-0.444-0.587-0.893-1.17-1.343-1.752C366.936,66.844,367.46,66.818,367.795,66.956z M363.249,66.986
							c0.929,1.288,1.851,2.581,2.761,3.882c0.791,1.131,1.52,2.468,2.462,3.504c0.003,0.76,0.014,1.521,0.012,2.281
							c-0.058-0.001-0.117-0.001-0.175-0.002c-2.18-3.34-4.734-6.585-7.286-9.663C361.765,67.005,362.507,67.002,363.249,66.986z
							 M368.129,82.676c-0.977,1.023-5.37,0.541-6.421-0.276c-1.361-1.06-0.959-2.108-0.992-3.819
							c-0.007-0.363-0.013-0.726-0.021-1.089c2.576,0.196,5.222,0.001,7.81,0.006C368.593,79.079,368.898,81.871,368.129,82.676z"/>
					</g>
					<path style="fill:#FFFFFF;" d="M329.664,63.95c-0.291-0.713-1.037-1.214-1.718-1.5c-0.127-0.053-0.257-0.091-0.388-0.126
						c-0.182-1.19-0.371-2.379-0.557-3.566c0.584,0.069,1.16,0.235,1.604,0.596c0.261,0.212,0.628-0.132,0.377-0.377
						c-0.548-0.537-1.309-0.849-2.097-0.983c-0.103-0.666-0.208-1.332-0.302-1.996c-0.03-0.211-0.39-0.163-0.374,0.051
						c0.046,0.624,0.091,1.251,0.136,1.88c-0.371-0.025-0.738-0.015-1.083,0.033c-0.021,0.003-0.044,0.009-0.065,0.013
						c-0.128-0.829-0.262-1.654-0.409-2.472c-0.047-0.259-0.492-0.203-0.464,0.063c0.088,0.851,0.16,1.703,0.232,2.555
						c-1.108,0.318-2.354,1.039-2.434,2.183c-0.118,1.705,1.403,2.38,2.799,2.599c0.069,0.999,0.138,1.998,0.209,2.997
						c-0.626-0.202-1.227-0.507-1.803-0.869c-0.338-0.213-0.799,0.22-0.563,0.563c0.582,0.847,1.476,1.235,2.446,1.364
						c0.05,0.671,0.097,1.341,0.152,2.012c0.034,0.406,0.628,0.418,0.64,0c0.019-0.652,0.019-1.307,0.01-1.964
						c0.43,0,0.86-0.037,1.275-0.099c0.112,0.68,0.233,1.356,0.375,2.027c0.081,0.382,0.719,0.303,0.689-0.093
						c-0.053-0.698-0.137-1.396-0.214-2.094C329.318,66.455,330.169,65.19,329.664,63.95z M325.942,58.726
						c0.148-0.01,0.304-0.007,0.459-0.007c0.085,1.157,0.177,2.318,0.287,3.477c-0.319-0.02-0.639-0.025-0.957-0.037
						c-0.111-1.122-0.249-2.241-0.409-3.353C325.527,58.77,325.734,58.74,325.942,58.726z M324.245,61.893
						c-1.478-0.639-1.345-2.038-0.108-2.695c0.159-0.084,0.325-0.153,0.493-0.212c0.082,1.028,0.157,2.055,0.229,3.083
						C324.65,62.03,324.443,61.979,324.245,61.893z M325.988,66.104c-0.032-1.037-0.096-2.076-0.185-3.114
						c0.331,0.019,0.656,0.035,0.973,0.075c0.106,1.019,0.231,2.034,0.382,3.042C326.759,66.161,326.369,66.157,325.988,66.104z
						 M328.047,65.871c-0.104-0.851-0.224-1.701-0.349-2.552c0.09,0.038,0.181,0.062,0.269,0.112
						C329.095,64.062,329.134,65.389,328.047,65.871z"/>
					<path style="fill:#FFFFFF;" d="M378.017,80.156c-0.415,0.34-0.633,0.868-0.949,1.298c-0.028,0.038-0.062,0.071-0.091,0.108
						c0.098-4.145-0.074-8.297-0.236-12.441c0.256,0.386,0.497,0.781,0.752,1.167c0.283,0.427,1.105,0.162,0.884-0.373
						c-0.234-0.567-0.641-1.101-1.055-1.552c-0.155-0.17-0.405-0.459-0.669-0.655c-0.173-0.492-1.008-0.448-0.997,0.148
						c-0.124,0.153-0.232,0.322-0.321,0.441c-0.434,0.578-0.824,1.19-1.219,1.795c-0.144,0.221,0.201,0.497,0.371,0.286
						c0.328-0.404,0.659-0.805,0.993-1.204c0.025-0.029,0.107-0.114,0.209-0.219c0.156,4.295,0.258,8.589,0.348,12.886
						c-0.383-0.426-0.786-0.848-1.19-1.229c-0.385-0.363-0.953,0.201-0.582,0.582c0.436,0.449,0.807,0.955,1.216,1.428
						c0.245,0.283,0.52,0.649,0.932,0.625c0.463-0.027,0.868-0.524,1.138-0.846c0.477-0.568,1.035-1.22,1.129-1.971
						C378.727,80.058,378.243,79.97,378.017,80.156z"/>
					<path style="fill:#FFFFFF;" d="M359.226,56.676c-0.493-0.796-1.5-1.506-2.271-2.013c-0.546-0.359-1.035,0.504-0.508,0.869
						c0.358,0.248,0.814,0.588,1.207,0.95c-7.094-0.258-14.223,0.039-21.322,0.011c0.114-0.1,0.227-0.202,0.343-0.299
						c0.323-0.271,0.654-0.534,0.986-0.795c0.378-0.296-0.123-0.953-0.517-0.671c-0.561,0.402-1.131,0.803-1.653,1.254
						c-0.354,0.306-0.643,0.654-0.304,1.089c0.332,0.427,0.861,0.772,1.287,1.096c0.453,0.344,0.952,0.817,1.56,0.675
						c0.194-0.045,0.29-0.292,0.187-0.459c-0.292-0.472-0.829-0.714-1.262-1.046c-0.14-0.108-0.374-0.27-0.586-0.436
						c7.105,0.25,14.238,0.456,21.347,0.465c-0.08,0.098-0.163,0.193-0.242,0.292c-0.386,0.482-0.936,0.949-0.804,1.604
						c0.028,0.14,0.204,0.287,0.353,0.269c0.63-0.078,0.881-0.628,1.247-1.103c0.286-0.371,0.574-0.739,0.87-1.102
						C359.291,57.144,359.36,56.893,359.226,56.676z"/>
					<g>
						<path style="fill:#FFFFFF;" d="M310.158,74.09c0.027,0.798,0.13,1.58,0.406,2.285c0.106,0.27,0.539,0.336,0.617,0
							c0.17-0.729,0.198-1.5,0.178-2.279c0.711,0.013,1.491,0.086,2.11-0.229c0.219-0.111,0.219-0.468,0-0.579
							c-0.639-0.327-1.43-0.215-2.153-0.171c-0.042-0.703-0.095-1.401-0.096-2.071c0-0.621-0.933-0.616-0.961,0
							c-0.03,0.664-0.086,1.377-0.106,2.096c-0.688,0.011-1.377,0.024-2.065,0.022c-0.555-0.002-0.542,0.814,0,0.854
							C308.781,74.068,309.469,74.086,310.158,74.09z"/>
						<path style="fill:#FFFFFF;" d="M313.544,80.553c-1.709,0.079-3.415,0.189-5.122,0.298c-0.553,0.035-0.565,0.865,0,0.869
							c1.708,0.012,3.415,0.024,5.122,0.007C314.301,81.719,314.298,80.518,313.544,80.553z"/>
					</g>
					<g>
						<path style="fill:#FFFFFF;" d="M315.235,118.308c0.539-0.61,1.274-1.363,1.313-2.169c0.01-0.208-0.225-0.307-0.39-0.224
							c-0.708,0.357-1.17,1.298-1.65,1.976c-0.776-0.453-1.553-0.904-2.337-1.345c-0.506-0.285-0.947,0.473-0.454,0.777
							c0.719,0.443,1.431,0.897,2.143,1.351c-0.51,0.593-1.041,1.166-1.608,1.706c-0.302,0.288,0.144,0.719,0.453,0.453
							c0.637-0.548,1.235-1.136,1.809-1.747c0.041,0.026,0.083,0.052,0.124,0.078c0.775,0.5,1.55,1.19,2.496,1.246
							c0.229,0.014,0.348-0.253,0.25-0.436C316.956,119.174,316.003,118.752,315.235,118.308z"/>
						<path style="fill:#FFFFFF;" d="M323.217,115.863c-0.52,0.841-1.001,1.702-1.456,2.576c-0.232-0.365-0.523-0.715-0.744-1.045
							c-0.377-0.563-0.783-1.092-1.273-1.562c-0.425-0.409-1.051,0.218-0.647,0.647c0.482,0.511,0.847,1.084,1.203,1.686
							c0.268,0.453,0.527,1.004,0.951,1.334c-0.178,0.372-0.372,0.735-0.535,1.115c-0.612,1.418-1.419,3.049-1.35,4.615
							c0.016,0.37,0.496,0.508,0.696,0.188c0.771-1.232,1.002-2.794,1.5-4.159c0.633-1.736,1.42-3.395,2.313-5.011
							C324.113,115.818,323.475,115.446,323.217,115.863z"/>
					</g>
				</g>
			</g>
			<g>
				<path style="fill:#92D8FE;" d="M221.881,117.073c0-27.033-21.915-48.948-48.948-48.948c-27.033,0-48.948,21.915-48.948,48.948
					s21.915,48.948,48.948,48.948c4.147,0,8.172-0.52,12.018-1.491c4.091,7.629,11.999,12.338,21.982,8.943
					c0,0-8.147-5.603-8.963-14.339C212.287,150.592,221.881,134.955,221.881,117.073z"/>
				<g>
					<g>
						<path style="fill:#7C71CD;" d="M189.338,99.678l8.202-6.638c0.211-0.171,0.721,0.339,0.55,0.55l-6.64,8.2L189.338,99.678z"/>
						<path style="fill:#FFFFFF;" d="M183.98,119.135l-15.074,13.075l-9.993-9.993l13.075-15.074
							c2.353-2.353,2.946-2.277,5.839-3.871c2.668-1.479,5.536-2.608,8.524-3.357l3.023-0.754c1.569-0.4,2.988,1.019,2.593,2.593
							l-0.754,3.023c-0.744,2.993-1.879,5.856-3.357,8.524C186.261,116.194,186.333,116.782,183.98,119.135z"/>
						<path style="fill:#E6335A;" d="M187.855,113.301c0,0-3.262-4.262-4.516-5.516c-1.253-1.253-5.511-4.512-5.511-4.512
							c2.668-1.479,5.536-2.608,8.524-3.357l3.023-0.754c1.569-0.4,2.988,1.019,2.593,2.593l-0.754,3.023
							C190.468,107.77,189.334,110.633,187.855,113.301z"/>
						<path style="fill:#E6335A;" d="M158.913,122.218l7.071-8.152c0,0-11.397-5.58-18.258,2.652
							c-2.494,2.992-1.94,4.824-0.719,4.751C149.049,121.347,154.167,118.109,158.913,122.218z"/>
						<path style="fill:#E6335A;" d="M168.906,132.21l8.152-7.071c0,0,5.58,11.397-2.652,18.257
							c-2.992,2.494-4.824,1.94-4.751,0.719C169.777,142.074,173.014,136.957,168.906,132.21z"/>
						<path style="fill:#E6335A;" d="M179.719,119.735c-2.299,2.299-6.027,2.299-8.326,0c-2.299-2.299-2.299-6.026,0-8.326
							c2.299-2.299,6.027-2.299,8.326,0C182.018,113.709,182.018,117.436,179.719,119.735z"/>
						<path style="fill:#73CDE5;" d="M178.5,118.516c-1.626,1.626-4.261,1.626-5.887,0c-1.626-1.626-1.626-4.261,0-5.887
							c1.626-1.626,4.261-1.626,5.887,0C180.125,114.254,180.125,116.89,178.5,118.516z"/>
						<polygon style="fill:#7C71CD;" points="163.612,135.506 155.618,127.512 158.913,122.218 168.906,132.21 						"/>
						<path style="fill:#E6335A;" d="M157.684,136.084l-2.645-2.645c-0.603-0.603-0.603-1.582,0-2.185l2.161-2.161l4.829,4.829
							l-2.161,2.161C159.265,136.688,158.287,136.688,157.684,136.084z"/>
						<g>
							<path style="fill:#FFFFFF;" d="M176.629,113.514c0.281,0.409,0.443,0.862,0.424,1.363c-0.019,0.5-0.374,0.873-0.389,1.355
								c-0.008,0.249,0.254,0.449,0.492,0.379c0.669-0.194,0.862-1.122,0.873-1.734c0.012-0.692-0.249-1.38-0.764-1.847
								C176.946,112.742,176.358,113.121,176.629,113.514L176.629,113.514z"/>
						</g>
						<g>
							<path style="fill:#FFFFFF;" d="M175.586,117.524c-0.16-0.104-0.324-0.109-0.509-0.116c-0.867-0.031-0.546,1.451,0.266,1.009
								c0.168-0.092,0.295-0.176,0.394-0.343C175.852,117.878,175.767,117.641,175.586,117.524L175.586,117.524z"/>
						</g>
						<path style="fill:#FF9750;" d="M154.458,132.688c0,0-4.961,1.481-5.337,5.337c-0.376,3.856-3.731,6.057-4.507,6.28
							c-0.776,0.223,2.766,0.374,5.332-1.307c0,0-0.573,0.926-2.259,2.612c2.736,0.238,10.301-3.064,10.748-8.946L154.458,132.688z"
							/>
						<path style="fill:#FFF252;" d="M155.532,133.762c0,0-3.477,1.228-3.289,3.289c0.187,2.061-1.646,3.475-1.646,3.475
							s5.382,0.51,6.938-4.762L155.532,133.762z"/>
					</g>
					<g>
						<g>
							<path style="fill:#FFFFFF;" d="M185.962,136.791c8.784-8.779,17.684-17.455,26.208-26.488
								c0.263-0.279-0.142-0.684-0.42-0.421c-9.033,8.524-17.709,17.424-26.488,26.208
								C184.81,136.542,185.511,137.243,185.962,136.791L185.962,136.791z"/>
						</g>
						<g>
							<path style="fill:#FFFFFF;" d="M135.196,118.207c9.798-9.69,19.907-19.168,29.286-29.265
								c0.201-0.216-0.107-0.524-0.323-0.323c-10.097,9.38-19.575,19.489-29.265,29.286
								C134.701,118.101,135.001,118.401,135.196,118.207L135.196,118.207z"/>
						</g>
						<g>
							<path style="fill:#FFFFFF;" d="M162.506,105.748c7.184-7.079,14.696-13.998,21.42-21.517
								c0.315-0.352-0.165-0.832-0.518-0.517c-7.519,6.724-14.438,14.236-21.517,21.42
								C161.499,105.532,162.107,106.141,162.506,105.748L162.506,105.748z"/>
						</g>
						<g>
							<path style="fill:#FFFFFF;" d="M166.819,159.041c3.583-2.549,6.52-6.259,9.523-9.445c0.29-0.307-0.156-0.754-0.464-0.464
								c-3.186,3.002-6.895,5.939-9.445,9.523C166.272,158.881,166.593,159.202,166.819,159.041L166.819,159.041z"/>
						</g>
						<g>
							<path style="fill:#FFFFFF;" d="M141.457,98.437c5.205-4.171,9.684-9.434,14.298-14.233c0.293-0.305-0.159-0.757-0.464-0.464
								c-4.799,4.614-10.063,9.093-14.233,14.298C140.83,98.323,141.172,98.665,141.457,98.437L141.457,98.437z"/>
						</g>
						<g>
							<path style="fill:#FFFFFF;" d="M187.658,150.609c6.716-8.097,14.497-15.241,21.794-22.807
								c0.225-0.233-0.122-0.581-0.356-0.356c-7.566,7.297-14.71,15.078-22.807,21.794
								C185.325,150.039,186.858,151.573,187.658,150.609L187.658,150.609z"/>
						</g>
						<g>
							<path style="fill:#FFFFFF;" d="M185.184,93.497c3.29-3.283,6.554-6.585,9.785-9.926c0.232-0.24-0.126-0.599-0.367-0.367
								c-3.341,3.231-6.642,6.496-9.926,9.785C184.351,93.318,184.857,93.824,185.184,93.497L185.184,93.497z"/>
						</g>
						<g>
							<path style="fill:#FFFFFF;" d="M167.252,84.002c2.274-2.278,4.598-4.516,6.777-6.885c0.339-0.369-0.181-0.889-0.55-0.55
								c-2.369,2.179-4.607,4.503-6.885,6.777C166.17,83.768,166.828,84.426,167.252,84.002L167.252,84.002z"/>
						</g>
						<g>
							<path style="fill:#FFFFFF;" d="M137.135,135.682c2.505-2.483,5.009-4.966,7.514-7.449c0.447-0.443-0.247-1.137-0.69-0.69
								c-2.483,2.505-4.966,5.009-7.449,7.514C136.109,135.462,136.731,136.084,137.135,135.682L137.135,135.682z"/>
						</g>
						<g>
							<path style="fill:#FFFFFF;" d="M155.898,154.864c2.595-3.044,5.293-5.972,7.972-8.943c0.244-0.27-0.129-0.643-0.399-0.399
								c-2.971,2.68-5.899,5.378-8.943,7.972C153.576,154.306,155.086,155.816,155.898,154.864L155.898,154.864z"/>
						</g>
						<g>
							<path style="fill:#FFFFFF;" d="M197.636,111.703c3.404-4.367,7.585-8.053,11.262-12.178c0.275-0.308-0.144-0.728-0.453-0.453
								c-4.126,3.677-7.812,7.858-12.179,11.262C195.276,111.105,196.863,112.694,197.636,111.703L197.636,111.703z"/>
						</g>
					</g>
				</g>
			</g>
			<g>
				<path style="fill:#92D8FE;" d="M565.309,87.097c0-27.033,21.915-48.948,48.948-48.948c27.033,0,48.948,21.915,48.948,48.948
					s-21.915,48.948-48.948,48.948c-4.147,0-8.173-0.52-12.018-1.492c-4.091,7.629-11.999,12.338-21.981,8.943
					c0,0,8.147-5.603,8.963-14.339C574.903,120.616,565.309,104.98,565.309,87.097z"/>
				<g>
					<path style="fill:#7C71CD;" d="M600.693,70.831c0-2.396-0.773-4.722-2.181-6.642l0.03-0.019l-0.547-0.643
						c-2.134-2.509-5.25-3.948-8.547-3.948c-0.001,0-0.001,0-0.001,0c-0.001,0-0.001,0-0.001,0c-0.002,0-0.003,0-0.004,0
						c-0.409,0-0.816,0.022-1.219,0.066c-2.833,0.31-5.453,1.686-7.326,3.88c-0.001,0.001-0.002,0.002-0.002,0.003l-0.547,0.641
						l0.031,0.02c-1.409,1.921-2.182,4.246-2.182,6.641c0,2.361,0.753,4.658,2.124,6.558l-0.028,0.018l0.531,0.636
						c2.139,2.561,5.28,4.031,8.618,4.033c0.001,0,0.003,0,0.004,0c0,0,0.001,0,0.001,0c0,0,0.001,0,0.002,0
						c0.486,0,0.967-0.04,1.442-0.102c2.38-0.307,4.595-1.357,6.328-3.022c0.297-0.285,0.581-0.589,0.848-0.909l0.531-0.636
						l-0.028-0.018C599.942,75.488,600.693,73.192,600.693,70.831z M596.271,77.825c-0.095,0.093-0.196,0.179-0.295,0.268
						c-0.154,0.139-0.31,0.278-0.472,0.406c-0.11,0.087-0.224,0.169-0.338,0.251c-0.161,0.117-0.323,0.23-0.49,0.336
						c-0.121,0.077-0.244,0.149-0.368,0.22c-0.169,0.098-0.342,0.19-0.516,0.277c-0.128,0.064-0.256,0.125-0.387,0.183
						c-0.167,0.074-0.337,0.14-0.507,0.205c0.59-0.81,1.096-1.824,1.49-2.997c0.703,0.214,1.363,0.47,1.955,0.774
						C596.318,77.773,596.296,77.801,596.271,77.825z M585.106,79.587c-0.179-0.089-0.356-0.184-0.529-0.284
						c-0.12-0.069-0.239-0.139-0.356-0.213c-0.172-0.109-0.34-0.226-0.505-0.347c-0.109-0.079-0.219-0.157-0.325-0.241
						c-0.167-0.132-0.328-0.275-0.487-0.418c-0.095-0.086-0.192-0.168-0.284-0.257c-0.025-0.025-0.048-0.053-0.073-0.078
						c0.592-0.303,1.253-0.559,1.956-0.774c0.394,1.173,0.899,2.185,1.489,2.995c-0.171-0.065-0.342-0.131-0.509-0.205
						C585.356,79.709,585.231,79.649,585.106,79.587z M582.69,63.762c0.093-0.089,0.192-0.17,0.288-0.255
						c0.156-0.138,0.313-0.275,0.477-0.403c0.109-0.084,0.221-0.162,0.333-0.242c0.161-0.115,0.324-0.227,0.491-0.332
						c0.119-0.074,0.24-0.144,0.362-0.213c0.17-0.096,0.342-0.187,0.516-0.273c0.125-0.061,0.252-0.121,0.38-0.177
						c0.149-0.065,0.301-0.123,0.453-0.18c-0.57,0.784-1.064,1.755-1.451,2.879c-0.684-0.207-1.329-0.452-1.909-0.742
						C582.651,63.805,582.669,63.782,582.69,63.762z M593.737,62.043c0.178,0.087,0.353,0.18,0.525,0.278
						c0.118,0.067,0.236,0.135,0.351,0.207c0.172,0.108,0.34,0.223,0.505,0.342c0.106,0.076,0.214,0.15,0.317,0.231
						c0.171,0.133,0.335,0.276,0.497,0.421c0.089,0.079,0.181,0.154,0.267,0.237c0.022,0.021,0.041,0.045,0.063,0.066
						c-0.58,0.291-1.225,0.537-1.91,0.743c-0.388-1.126-0.882-2.098-1.454-2.883c0.156,0.059,0.312,0.118,0.464,0.185
						C593.489,61.924,593.613,61.983,593.737,62.043z M595.302,70.096c-0.048-1.478-0.237-2.868-0.545-4.127
						c0.907-0.273,1.746-0.615,2.493-1.021c1.129,1.495,1.806,3.282,1.947,5.148H595.302z M590.177,61.2
						c1.047,0.428,2.06,1.748,2.758,3.722c-0.879,0.175-1.806,0.283-2.758,0.32V61.2z M588.714,65.241
						c-0.953-0.037-1.88-0.146-2.758-0.321c0.698-1.974,1.711-3.294,2.758-3.721V65.241z M588.714,66.701v3.394h-3.662
						c0.046-1.387,0.221-2.653,0.491-3.772C586.555,66.533,587.62,66.661,588.714,66.701z M588.714,71.559v3.272
						c-1.105,0.04-2.179,0.17-3.198,0.383c-0.254-1.09-0.419-2.316-0.464-3.655H588.714z M588.714,76.291v4.164
						c-1.068-0.436-2.101-1.797-2.8-3.836C586.804,76.44,587.745,76.329,588.714,76.291z M590.177,76.291
						c0.969,0.037,1.91,0.149,2.8,0.328c-0.699,2.039-1.733,3.4-2.8,3.836V76.291z M590.177,74.831v-3.272h3.662
						c-0.045,1.339-0.209,2.564-0.463,3.654C592.357,75,591.282,74.871,590.177,74.831z M590.177,70.096v-3.394
						c1.094-0.04,2.159-0.168,3.171-0.377c0.27,1.119,0.445,2.384,0.491,3.771H590.177z M584.135,65.969
						c-0.308,1.258-0.497,2.648-0.545,4.127h-3.896c0.141-1.866,0.819-3.652,1.948-5.148
						C582.389,65.354,583.227,65.696,584.135,65.969z M583.59,71.559c0.046,1.434,0.225,2.785,0.517,4.013
						c-0.923,0.279-1.775,0.631-2.532,1.049c-1.09-1.474-1.745-3.231-1.882-5.062H583.59z M594.785,75.572
						c0.292-1.228,0.471-2.579,0.517-4.013h3.896c-0.137,1.831-0.792,3.586-1.882,5.061
						C596.56,76.202,595.708,75.851,594.785,75.572z"/>
					<g>
						<g>
							<path style="fill:#FFF252;" d="M600.998,102.596h-1.2c-0.128-0.384-0.285-0.754-0.464-1.112l0.85-0.85
								c0.264-0.264,0.264-0.693,0-0.958l-2.844-2.844c-0.264-0.264-0.693-0.264-0.958,0l-0.85,0.85
								c-0.358-0.179-0.728-0.336-1.112-0.464v-1.2c0-0.374-0.303-0.677-0.677-0.677h-4.022c-0.374,0-0.677,0.303-0.677,0.677v1.2
								c-0.384,0.128-0.754,0.285-1.112,0.464l-0.85-0.85c-0.264-0.264-0.693-0.264-0.958,0l-2.844,2.844
								c-0.265,0.265-0.265,0.693,0,0.958l0.85,0.85c-0.179,0.358-0.336,0.728-0.464,1.112h-1.2c-0.374,0-0.677,0.303-0.677,0.677
								v4.022c0,0.374,0.303,0.677,0.677,0.677h1.2c0.128,0.384,0.285,0.755,0.464,1.112l-0.85,0.85
								c-0.265,0.264-0.265,0.693,0,0.958l2.844,2.844c0.265,0.265,0.693,0.265,0.958,0l0.85-0.85
								c0.358,0.179,0.728,0.336,1.112,0.464v1.2c0,0.374,0.303,0.677,0.677,0.677h4.022c0.374,0,0.677-0.303,0.677-0.677v-1.2
								c0.384-0.128,0.754-0.285,1.112-0.464l0.85,0.85c0.264,0.265,0.693,0.265,0.958,0l2.844-2.844
								c0.264-0.265,0.264-0.693,0-0.958l-0.85-0.85c0.179-0.358,0.336-0.728,0.464-1.112h1.2c0.374,0,0.677-0.303,0.677-0.677
								v-4.022C601.675,102.899,601.371,102.596,600.998,102.596z M594.896,105.284c0,1.747-1.417,3.164-3.164,3.164
								c-1.747,0-3.164-1.417-3.164-3.164c0-1.747,1.417-3.164,3.164-3.164C593.48,102.12,594.896,103.536,594.896,105.284z"/>
						</g>
						<g>
							<path style="fill:#E6335A;" d="M613.725,113.404c-0.436,0-0.654-0.527-0.346-0.836c0.35-0.35,0.35-0.918,0-1.269l-1.02-1.02
								c-0.35-0.35-0.918-0.35-1.269,0c-0.308,0.308-0.835,0.09-0.835-0.346l0,0c0-0.495-0.402-0.897-0.897-0.897h-1.443
								c-0.495,0-0.897,0.402-0.897,0.897l0,0c0,0.436-0.527,0.654-0.835,0.346c-0.35-0.35-0.918-0.35-1.269,0l-1.02,1.02
								c-0.35,0.35-0.35,0.918,0,1.269l0,0c0.308,0.308,0.09,0.836-0.346,0.836c-0.495,0-0.897,0.402-0.897,0.897v1.443
								c0,0.495,0.402,0.897,0.897,0.897c0.436,0,0.654,0.527,0.346,0.836l0,0c-0.35,0.35-0.35,0.918,0,1.269l1.02,1.02
								c0.35,0.35,0.918,0.35,1.269,0c0.308-0.308,0.835-0.09,0.835,0.346l0,0c0,0.495,0.402,0.897,0.897,0.897h1.443
								c0.495,0,0.897-0.402,0.897-0.897l0,0c0-0.436,0.527-0.654,0.835-0.346c0.35,0.35,0.918,0.35,1.269,0l1.02-1.02
								c0.35-0.35,0.35-0.918,0-1.269l0,0c-0.308-0.308-0.09-0.836,0.346-0.836c0.495,0,0.897-0.402,0.897-0.897v-1.443
								C614.622,113.805,614.221,113.404,613.725,113.404z M608.636,118.425c-1.879,0-3.402-1.523-3.402-3.402
								s1.523-3.402,3.402-3.402s3.402,1.523,3.402,3.402S610.515,118.425,608.636,118.425z"/>
						</g>
					</g>
					<g>
						<path style="fill:#FFF252;" d="M626.996,112.165v-4.306c-1.652-0.384-2.865-0.964-3.635-1.742
							c-0.773-0.778-1.158-1.721-1.158-2.831c0-1.123,0.435-2.067,1.31-2.831c0.871-0.764,2.033-1.204,3.483-1.32v-1.27
							c0-0.506,0.41-0.917,0.917-0.917l0,0c0.506,0,0.917,0.41,0.917,0.917v1.27c1.34,0.13,2.407,0.502,3.199,1.115
							c0.264,0.204,0.497,0.432,0.697,0.683c0.636,0.794,0.061,1.859-1.096,1.981l-0.052,0.006
							c-0.672,0.071-1.265-0.243-1.614-0.715c-0.266-0.36-0.644-0.626-1.135-0.799v4.018c2.023,0.445,3.402,1.022,4.135,1.731
							c0.733,0.709,1.1,1.618,1.1,2.728c0,1.24-0.461,2.285-1.385,3.134c-0.922,0.85-2.206,1.37-3.85,1.562v1.005
							c0,0.506-0.41,0.917-0.917,0.917l0,0c-0.506,0-0.917-0.41-0.917-0.917v-0.953c-1.458-0.144-2.643-0.586-3.554-1.326
							c-0.484-0.394-0.876-0.873-1.174-1.439c-0.438-0.831,0.29-1.77,1.396-1.866l0,0c0.734-0.064,1.391,0.284,1.723,0.819
							c0.106,0.172,0.23,0.332,0.37,0.482C626.128,111.699,626.541,111.987,626.996,112.165z M626.996,101.375
							c-0.497,0.137-0.894,0.37-1.189,0.699c-0.295,0.329-0.443,0.692-0.443,1.089c0,0.363,0.135,0.7,0.405,1.012
							c0.27,0.312,0.679,0.563,1.227,0.755V101.375z M628.83,112.309c0.632-0.096,1.146-0.334,1.543-0.714
							c0.396-0.38,0.594-0.827,0.594-1.341c0-0.459-0.167-0.855-0.499-1.187c-0.334-0.332-0.88-0.587-1.638-0.766V112.309z"/>
					</g>
					<path style="fill:#FFFFFF;" d="M614.949,53.472c-4.596,1.603-7.656,4.877-10.648,8.45c-0.597-1.664-1.357-3.205-2.338-4.731
						c-0.408-0.634-1.375-0.075-1.014,0.593c1.012,1.871,1.771,3.82,2.326,5.873c0.141,0.523,0.891,0.777,1.272,0.336
						c1.166-1.35,2.206-2.799,3.452-4.08c2.176-2.237,4.772-3.721,7.431-5.297C616.021,54.265,615.636,53.233,614.949,53.472z"/>
					<path style="fill:#FFFFFF;" d="M651.848,92.107c-4.846,0.363-9.161,4.04-11.832,8.003c-0.551-1.235-1.254-2.353-2.149-3.419
						c-0.476-0.568-1.266,0.244-0.809,0.809c1.027,1.267,1.726,2.562,2.239,4.111c0.167,0.503,0.839,0.609,1.126,0.147
						c2.898-4.672,6.849-6.677,11.598-9.012C652.322,92.599,652.183,92.082,651.848,92.107z"/>
					<path style="fill:#FFFFFF;" d="M647.188,57.234c-4.846,0.363-9.161,4.04-11.832,8.003c-0.551-1.234-1.253-2.353-2.149-3.419
						c-0.477-0.567-1.266,0.244-0.809,0.809c1.027,1.267,1.726,2.562,2.239,4.112c0.167,0.503,0.839,0.609,1.126,0.147
						c2.898-4.672,6.849-6.677,11.598-9.012C647.662,57.726,647.524,57.209,647.188,57.234z"/>
					<path style="fill:#FFFFFF;" d="M618.801,88.394c-4.561,0.142-9.193,3.856-12.353,7.169c-0.343-1.016-0.67-2.036-0.967-3.068
						c-0.238-0.828-1.522-0.479-1.294,0.357c0.389,1.428,0.82,2.837,1.297,4.237c0.162,0.477,0.795,0.719,1.174,0.31
						c1.792-1.933,3.769-3.636,6.016-5.026c2.023-1.251,4.363-1.936,6.323-3.254C619.3,88.915,619.209,88.381,618.801,88.394z"/>
					<g>
						
							<rect x="627.059" y="70.06" transform="matrix(0.7071 -0.7071 0.7071 0.7071 131.7309 466.1882)" style="fill:#5E3C77;" width="3.09" height="8.041"/>
						<path style="fill:#E6335A;" d="M629.836,78.224l5.277,5.277c0.804,0.804,2.107,0.804,2.911,0c0.804-0.804,0.804-2.107,0-2.911
							l-5.277-5.277L629.836,78.224z"/>
						<g>
							<path style="fill:#5E3C77;" d="M628.913,62.218c3.361,3.361,3.361,8.81,0,12.171c-3.361,3.361-8.81,3.361-12.171,0
								c-3.361-3.361-3.361-8.81,0-12.171C620.103,58.857,625.552,58.857,628.913,62.218z"/>
							<path style="fill:#73CDE5;" d="M627.342,63.789c2.493,2.494,2.493,6.536,0,9.03c-2.494,2.493-6.536,2.493-9.03,0
								c-2.493-2.494-2.493-6.536,0-9.03C620.806,61.295,624.849,61.295,627.342,63.789z"/>
							<g>
								<g>
									<path style="fill:#FFFFFF;" d="M619.914,66.326c0.854-0.674,1.842-1.092,2.94-1.098c0.49-0.003,0.966,0.091,1.423,0.265
										c0.405,0.154,0.705,0.443,1.147,0.428c0.169-0.006,0.27-0.152,0.241-0.312c-0.2-1.096-2.163-1.347-3.054-1.297
										c-1.237,0.069-2.421,0.655-3.062,1.735C619.406,66.29,619.721,66.478,619.914,66.326L619.914,66.326z"/>
								</g>
								<g>
									<path style="fill:#FFFFFF;" d="M626.594,67.974c0.217,0.255,0.186,0.553,0.288,0.849c0.101,0.294,0.342,0.482,0.638,0.286
										c0.706-0.47,0.154-1.51-0.397-1.83C626.674,67.019,626.283,67.608,626.594,67.974L626.594,67.974z"/>
								</g>
							</g>
						</g>
					</g>
					<g>
						<path style="fill:#FFFFFF;" d="M575.764,86.675c-0.054,0.002-0.111,0.013-0.169,0.039c-1.55,0.678-2.564,2.27-1.694,3.91
							c0.784,1.477,2.891,2.459,4.449,1.612c1.457-0.792,1.665-3.041,0.985-4.401C578.754,86.674,576.854,85.626,575.764,86.675z
							 M577.73,91.208c-1.005,0.5-2.371-0.208-2.854-1.155c-0.543-1.065,0.228-2.111,1.119-2.655
							c0.063-0.038,0.105-0.084,0.137-0.132c0.994-0.223,1.88-0.085,2.342,0.998C578.865,89.179,578.713,90.72,577.73,91.208z"/>
						<path style="fill:#FFFFFF;" d="M586.563,92.123c-0.333-0.593-1-1.04-1.499-1.495c-0.563-0.513-1.126-1.027-1.69-1.54
							c-0.026-0.024-0.055-0.038-0.083-0.05c0.149-0.117,0.299-0.234,0.448-0.351c0.608-0.476,1.33-0.92,1.81-1.528
							c0.148-0.189-0.031-0.445-0.259-0.335c-0.68,0.327-1.25,0.912-1.83,1.389c-0.47,0.387-0.94,0.773-1.41,1.16
							c-0.006-0.067-0.015-0.136-0.02-0.202c-0.086-1.119-0.145-2.242-0.311-3.352c-0.071-0.47-0.802-0.34-0.809,0.109
							c-0.017,1.164,0.088,2.33,0.155,3.492c0.059,1.022-0.021,2.128,0.341,3.091c0.118,0.313,0.618,0.381,0.706,0
							c0.189-0.821,0.092-1.694-0.002-2.547c0.268-0.209,0.535-0.419,0.803-0.628c0.009,0.049,0.028,0.097,0.073,0.142
							c0.539,0.538,1.078,1.075,1.617,1.613c0.476,0.475,0.959,1.128,1.564,1.43C586.421,92.646,586.711,92.386,586.563,92.123z"/>
					</g>
					<g>
						<path style="fill:#FFFFFF;" d="M643.621,72.016c-0.361,0.702-0.677,1.417-0.975,2.141c-0.234-0.194-0.503-0.358-0.711-0.495
							c-0.627-0.413-1.309-0.726-2.02-0.965c-0.448-0.151-0.602,0.518-0.191,0.691c0.644,0.27,1.257,0.624,1.803,1.06
							c0.24,0.191,0.476,0.46,0.74,0.656c-0.026,0.07-0.058,0.138-0.084,0.209c-0.401,1.092-0.947,2.29-0.928,3.465
							c0.007,0.429,0.572,0.574,0.795,0.215c0.582-0.933,0.773-2.11,1.113-3.153c0.384-1.176,0.8-2.341,1.195-3.513
							C644.505,71.896,643.831,71.608,643.621,72.016z"/>
						<path style="fill:#FFFFFF;" d="M649.759,78.594c-0.595-0.257-1.137-0.209-1.783-0.207c-0.317,0.001-1.848,0.159-1.978,0.034
							c-0.132-0.128,0.009-1.378,0.039-1.799c0.387,0.028,0.774,0.048,1.159,0.098c0.481,0.062,0.912,0.237,1.357,0.013
							c0.143-0.072,0.164-0.289,0.051-0.395c-0.373-0.349-0.868-0.291-1.36-0.318c-0.387-0.022-0.774-0.013-1.161-0.013
							c0.043-0.6,0.106-1.199,0.192-1.794c0.827,0.073,1.654,0.145,2.482,0.218c0.3,0.026,0.307-0.462,0-0.473
							c-0.82-0.029-1.64-0.058-2.46-0.088c-0.057-0.424-0.701-0.581-0.803-0.092c-0.166,0.79-0.29,1.587-0.385,2.388
							c-0.024,0.055-0.032,0.107-0.021,0.166c-0.015,0.133-0.037,0.265-0.05,0.398c-0.06,0.64-0.327,1.769,0.086,2.346
							c0.363,0.507,1.123,0.374,1.655,0.374c0.975,0,2.072,0.184,2.979-0.212C650.003,79.133,650.004,78.7,649.759,78.594z"/>
						<path style="fill:#FFFFFF;" d="M656.12,77.613c-0.352-0.917-1.502-1.662-2.363-2.03c-0.383-0.164-0.934-0.22-1.265-0.483
							c-0.382-0.304-0.437-0.306-0.096-0.794c0.373-0.535,1.213-0.924,1.846-0.808c0.59,0.109,0.85-0.766,0.251-0.912
							c-1.387-0.337-4.828,1.451-3.14,3.077c0.613,0.591,1.526,0.62,2.262,0.952c0.943,0.426,2.116,1.299,1.108,2.253
							c-0.624,0.591-1.605,0.534-2.346,0.843c-0.306,0.128-0.465,0.595-0.102,0.78C653.715,81.226,656.795,79.37,656.12,77.613z"/>
					</g>
				</g>
			</g>
		</g>
	</g>
</g>
</svg>
