<svg xmlns="http://www.w3.org/2000/svg" xmlns:xlink="http://www.w3.org/1999/xlink" width="180" zoomAndPan="magnify" viewBox="0 0 135 37.5" height="50" preserveAspectRatio="xMidYMid meet" version="1.0"><defs><g/></defs><g fill="#ff3131" fill-opacity="1"><g transform="translate(6.125228, 27.107197)"><g><path d="M 2.921875 -9.03125 L 5.609375 -9.03125 L 5.609375 -0.15625 C 5.609375 -0.0507812 5.539062 0 5.40625 0 L 3.125 0 C 2.988281 0 2.921875 -0.0507812 2.921875 -0.15625 Z M 0.1875 -11.75 C 0.0625 -11.75 0 -11.800781 0 -11.90625 L 0 -14.015625 C 0 -14.117188 0.0625 -14.171875 0.1875 -14.171875 L 8.328125 -14.171875 C 8.453125 -14.171875 8.515625 -14.117188 8.515625 -14.015625 L 8.515625 -11.90625 C 8.515625 -11.800781 8.453125 -11.75 8.328125 -11.75 Z M 0.1875 -11.75 "/></g></g></g><g fill="#000000" fill-opacity="1"><g transform="translate(15.074828, 27.107197)"><g><path d="M 8.15625 -7.046875 C 8.15625 -6.679688 8.023438 -6.367188 7.765625 -6.109375 C 7.515625 -5.847656 7.203125 -5.71875 6.828125 -5.71875 C 6.453125 -5.71875 6.132812 -5.847656 5.875 -6.109375 C 5.625 -6.367188 5.5 -6.679688 5.5 -7.046875 C 5.5 -7.429688 5.625 -7.753906 5.875 -8.015625 C 6.132812 -8.273438 6.453125 -8.40625 6.828125 -8.40625 C 7.203125 -8.40625 7.515625 -8.273438 7.765625 -8.015625 C 8.023438 -7.753906 8.15625 -7.429688 8.15625 -7.046875 Z M 13.640625 -7.109375 C 13.640625 -6.222656 13.5 -5.359375 13.21875 -4.515625 C 12.9375 -3.671875 12.507812 -2.90625 11.9375 -2.21875 C 11.375 -1.539062 10.664062 -1 9.8125 -0.59375 C 8.96875 -0.195312 7.976562 0 6.84375 0 C 5.695312 0 4.691406 -0.195312 3.828125 -0.59375 C 2.972656 -1 2.257812 -1.539062 1.6875 -2.21875 C 1.125 -2.90625 0.703125 -3.671875 0.421875 -4.515625 C 0.140625 -5.359375 0 -6.222656 0 -7.109375 C 0 -7.992188 0.140625 -8.851562 0.421875 -9.6875 C 0.703125 -10.53125 1.125 -11.285156 1.6875 -11.953125 C 2.257812 -12.628906 2.972656 -13.164062 3.828125 -13.5625 C 4.691406 -13.96875 5.695312 -14.171875 6.84375 -14.171875 C 7.976562 -14.171875 8.96875 -13.96875 9.8125 -13.5625 C 10.664062 -13.164062 11.375 -12.628906 11.9375 -11.953125 C 12.507812 -11.285156 12.9375 -10.53125 13.21875 -9.6875 C 13.5 -8.851562 13.640625 -7.992188 13.640625 -7.109375 Z M 10.984375 -7.046875 C 10.984375 -7.628906 10.894531 -8.191406 10.71875 -8.734375 C 10.539062 -9.285156 10.28125 -9.78125 9.9375 -10.21875 C 9.59375 -10.664062 9.160156 -11.019531 8.640625 -11.28125 C 8.117188 -11.539062 7.519531 -11.671875 6.84375 -11.671875 C 6.144531 -11.671875 5.535156 -11.539062 5.015625 -11.28125 C 4.492188 -11.019531 4.054688 -10.664062 3.703125 -10.21875 C 3.359375 -9.78125 3.097656 -9.285156 2.921875 -8.734375 C 2.753906 -8.191406 2.671875 -7.628906 2.671875 -7.046875 C 2.671875 -6.484375 2.753906 -5.929688 2.921875 -5.390625 C 3.097656 -4.847656 3.359375 -4.359375 3.703125 -3.921875 C 4.054688 -3.484375 4.492188 -3.132812 5.015625 -2.875 C 5.535156 -2.613281 6.144531 -2.484375 6.84375 -2.484375 C 7.519531 -2.484375 8.117188 -2.613281 8.640625 -2.875 C 9.160156 -3.132812 9.59375 -3.484375 9.9375 -3.921875 C 10.28125 -4.359375 10.539062 -4.847656 10.71875 -5.390625 C 10.894531 -5.929688 10.984375 -6.484375 10.984375 -7.046875 Z M 10.984375 -7.046875 "/></g></g></g><g fill="#000000" fill-opacity="1"><g transform="translate(29.382158, 27.107197)"><g><path d="M 8.15625 -7.046875 C 8.15625 -6.679688 8.023438 -6.367188 7.765625 -6.109375 C 7.515625 -5.847656 7.203125 -5.71875 6.828125 -5.71875 C 6.453125 -5.71875 6.132812 -5.847656 5.875 -6.109375 C 5.625 -6.367188 5.5 -6.679688 5.5 -7.046875 C 5.5 -7.429688 5.625 -7.753906 5.875 -8.015625 C 6.132812 -8.273438 6.453125 -8.40625 6.828125 -8.40625 C 7.203125 -8.40625 7.515625 -8.273438 7.765625 -8.015625 C 8.023438 -7.753906 8.15625 -7.429688 8.15625 -7.046875 Z M 13.640625 -7.109375 C 13.640625 -6.222656 13.5 -5.359375 13.21875 -4.515625 C 12.9375 -3.671875 12.507812 -2.90625 11.9375 -2.21875 C 11.375 -1.539062 10.664062 -1 9.8125 -0.59375 C 8.96875 -0.195312 7.976562 0 6.84375 0 C 5.695312 0 4.691406 -0.195312 3.828125 -0.59375 C 2.972656 -1 2.257812 -1.539062 1.6875 -2.21875 C 1.125 -2.90625 0.703125 -3.671875 0.421875 -4.515625 C 0.140625 -5.359375 0 -6.222656 0 -7.109375 C 0 -7.992188 0.140625 -8.851562 0.421875 -9.6875 C 0.703125 -10.53125 1.125 -11.285156 1.6875 -11.953125 C 2.257812 -12.628906 2.972656 -13.164062 3.828125 -13.5625 C 4.691406 -13.96875 5.695312 -14.171875 6.84375 -14.171875 C 7.976562 -14.171875 8.96875 -13.96875 9.8125 -13.5625 C 10.664062 -13.164062 11.375 -12.628906 11.9375 -11.953125 C 12.507812 -11.285156 12.9375 -10.53125 13.21875 -9.6875 C 13.5 -8.851562 13.640625 -7.992188 13.640625 -7.109375 Z M 10.984375 -7.046875 C 10.984375 -7.628906 10.894531 -8.191406 10.71875 -8.734375 C 10.539062 -9.285156 10.28125 -9.78125 9.9375 -10.21875 C 9.59375 -10.664062 9.160156 -11.019531 8.640625 -11.28125 C 8.117188 -11.539062 7.519531 -11.671875 6.84375 -11.671875 C 6.144531 -11.671875 5.535156 -11.539062 5.015625 -11.28125 C 4.492188 -11.019531 4.054688 -10.664062 3.703125 -10.21875 C 3.359375 -9.78125 3.097656 -9.285156 2.921875 -8.734375 C 2.753906 -8.191406 2.671875 -7.628906 2.671875 -7.046875 C 2.671875 -6.484375 2.753906 -5.929688 2.921875 -5.390625 C 3.097656 -4.847656 3.359375 -4.359375 3.703125 -3.921875 C 4.054688 -3.484375 4.492188 -3.132812 5.015625 -2.875 C 5.535156 -2.613281 6.144531 -2.484375 6.84375 -2.484375 C 7.519531 -2.484375 8.117188 -2.613281 8.640625 -2.875 C 9.160156 -3.132812 9.59375 -3.484375 9.9375 -3.921875 C 10.28125 -4.359375 10.539062 -4.847656 10.71875 -5.390625 C 10.894531 -5.929688 10.984375 -6.484375 10.984375 -7.046875 Z M 10.984375 -7.046875 "/></g></g></g><g fill="#000000" fill-opacity="1"><g transform="translate(43.689489, 27.107197)"><g><path d="M 7.65625 -2.640625 C 7.78125 -2.640625 7.84375 -2.582031 7.84375 -2.46875 L 7.84375 -0.15625 C 7.84375 -0.0507812 7.78125 0 7.65625 0 L 0.1875 0 C 0.0625 0 0 -0.0507812 0 -0.15625 L 0 -2.640625 Z M 2.71875 -5.34375 L 0 -5.34375 L 0 -14.015625 C 0 -14.117188 0.0625 -14.171875 0.1875 -14.171875 L 2.53125 -14.171875 C 2.65625 -14.171875 2.71875 -14.117188 2.71875 -14.015625 Z M 2.71875 -5.34375 "/></g></g></g><g fill="#000000" fill-opacity="1"><g transform="translate(51.940998, 27.107197)"><g><path d="M 6.5 -7.859375 C 7.25 -7.523438 7.820312 -7.03125 8.21875 -6.375 C 8.613281 -5.71875 8.8125 -4.96875 8.8125 -4.125 C 8.8125 -3.238281 8.597656 -2.488281 8.171875 -1.875 C 7.753906 -1.257812 7.210938 -0.789062 6.546875 -0.46875 C 5.878906 -0.15625 5.164062 0 4.40625 0 C 4.40625 0 4.398438 0 4.390625 0 L 4.390625 -2.546875 C 4.398438 -2.546875 4.40625 -2.546875 4.40625 -2.546875 C 4.882812 -2.546875 5.300781 -2.691406 5.65625 -2.984375 C 6.007812 -3.273438 6.1875 -3.65625 6.1875 -4.125 C 6.1875 -4.476562 6.09375 -4.78125 5.90625 -5.03125 C 5.726562 -5.28125 5.5 -5.472656 5.21875 -5.609375 C 4.945312 -5.753906 4.675781 -5.832031 4.40625 -5.84375 C 4.351562 -5.84375 4.117188 -5.863281 3.703125 -5.90625 C 3.285156 -5.945312 2.816406 -6.085938 2.296875 -6.328125 C 1.566406 -6.671875 1 -7.144531 0.59375 -7.75 C 0.195312 -8.363281 0 -9.082031 0 -9.90625 C 0 -10.789062 0.207031 -11.550781 0.625 -12.1875 C 1.050781 -12.820312 1.597656 -13.3125 2.265625 -13.65625 C 2.941406 -14 3.65625 -14.171875 4.40625 -14.171875 C 5.226562 -14.171875 5.960938 -14.003906 6.609375 -13.671875 C 7.253906 -13.335938 7.769531 -12.863281 8.15625 -12.25 C 8.539062 -11.644531 8.738281 -10.941406 8.75 -10.140625 C 8.757812 -10.109375 8.742188 -10.078125 8.703125 -10.046875 C 8.660156 -10.015625 8.613281 -10 8.5625 -10 L 6.34375 -10 C 6.289062 -10 6.242188 -10.015625 6.203125 -10.046875 C 6.160156 -10.078125 6.140625 -10.109375 6.140625 -10.140625 C 6.128906 -10.640625 5.953125 -11.007812 5.609375 -11.25 C 5.273438 -11.5 4.875 -11.625 4.40625 -11.625 C 3.925781 -11.625 3.507812 -11.476562 3.15625 -11.1875 C 2.8125 -10.894531 2.640625 -10.46875 2.640625 -9.90625 C 2.640625 -9.394531 2.820312 -9.003906 3.1875 -8.734375 C 3.550781 -8.472656 3.957031 -8.34375 4.40625 -8.34375 C 4.445312 -8.34375 4.566406 -8.335938 4.765625 -8.328125 C 4.960938 -8.316406 5.21875 -8.273438 5.53125 -8.203125 C 5.84375 -8.140625 6.164062 -8.023438 6.5 -7.859375 Z M 6.5 -7.859375 "/></g></g></g><g fill="#ff3131" fill-opacity="1"><g transform="translate(61.186393, 27.107197)"><g><path d="M 14.71875 -11.578125 L 17.484375 -11.578125 L 13.078125 -0.109375 C 13.054688 -0.0351562 13 0 12.90625 0 C 12.820312 0 12.765625 -0.0351562 12.734375 -0.109375 L 8.734375 -10.609375 L 4.734375 -0.109375 C 4.710938 -0.0351562 4.65625 0 4.5625 0 C 4.476562 0 4.421875 -0.0351562 4.390625 -0.109375 L 0 -11.578125 L 2.765625 -11.578125 L 4.546875 -6.703125 L 7.375 -14.0625 C 7.394531 -14.132812 7.445312 -14.171875 7.53125 -14.171875 L 9.9375 -14.171875 C 10.019531 -14.171875 10.082031 -14.132812 10.125 -14.0625 L 12.921875 -6.703125 Z M 14.71875 -11.578125 "/></g></g></g><g fill="#000000" fill-opacity="1"><g transform="translate(79.536915, 27.107197)"><g><path d="M 11.125 -0.21875 C 11.144531 -0.164062 11.140625 -0.113281 11.109375 -0.0625 C 11.078125 -0.0195312 11.03125 0 10.96875 0 L 8.515625 0 C 8.441406 0 8.390625 -0.0351562 8.359375 -0.109375 L 5.5625 -8.015625 L 2.796875 -0.109375 C 2.785156 -0.0351562 2.726562 0 2.625 0 L 0.1875 0 C 0.113281 0 0.0625 -0.0195312 0.03125 -0.0625 C 0 -0.113281 -0.00390625 -0.164062 0.015625 -0.21875 L 5.390625 -14.0625 C 5.410156 -14.132812 5.46875 -14.171875 5.5625 -14.171875 C 5.65625 -14.171875 5.710938 -14.132812 5.734375 -14.0625 Z M 11.125 -0.21875 "/></g></g></g><g fill="#000000" fill-opacity="1"><g transform="translate(91.223596, 27.107197)"><g><path d="M 10.8125 -11.578125 L 8.09375 -11.578125 C 7.75 -11.585938 7.347656 -11.578125 6.890625 -11.546875 C 6.429688 -11.515625 5.957031 -11.425781 5.46875 -11.28125 C 4.988281 -11.132812 4.535156 -10.898438 4.109375 -10.578125 C 3.691406 -10.253906 3.359375 -9.8125 3.109375 -9.25 C 2.859375 -8.6875 2.734375 -7.96875 2.734375 -7.09375 C 2.734375 -5.96875 2.960938 -5.0625 3.421875 -4.375 C 3.890625 -3.695312 4.53125 -3.21875 5.34375 -2.9375 C 6.15625 -2.65625 7.070312 -2.539062 8.09375 -2.59375 L 8.09375 -6.125 L 5.375 -6.125 L 5.375 -8.84375 L 10.8125 -8.84375 L 10.8125 -0.15625 C 10.8125 -0.0507812 10.742188 0 10.609375 0 L 8.3125 0 C 7.613281 0 6.882812 -0.046875 6.125 -0.140625 C 5.363281 -0.234375 4.617188 -0.414062 3.890625 -0.6875 C 3.160156 -0.957031 2.503906 -1.351562 1.921875 -1.875 C 1.335938 -2.394531 0.867188 -3.078125 0.515625 -3.921875 C 0.171875 -4.773438 0 -5.832031 0 -7.09375 C 0 -8.300781 0.171875 -9.320312 0.515625 -10.15625 C 0.859375 -10.988281 1.320312 -11.664062 1.90625 -12.1875 C 2.488281 -12.71875 3.140625 -13.128906 3.859375 -13.421875 C 4.578125 -13.710938 5.320312 -13.910156 6.09375 -14.015625 C 6.863281 -14.117188 7.601562 -14.171875 8.3125 -14.171875 L 10.609375 -14.171875 C 10.742188 -14.171875 10.8125 -14.117188 10.8125 -14.015625 Z M 10.8125 -11.578125 "/></g></g></g><g fill="#000000" fill-opacity="1"><g transform="translate(102.57384, 27.107197)"><g><path d="M 8.15625 -7.046875 C 8.15625 -6.679688 8.023438 -6.367188 7.765625 -6.109375 C 7.515625 -5.847656 7.203125 -5.71875 6.828125 -5.71875 C 6.453125 -5.71875 6.132812 -5.847656 5.875 -6.109375 C 5.625 -6.367188 5.5 -6.679688 5.5 -7.046875 C 5.5 -7.429688 5.625 -7.753906 5.875 -8.015625 C 6.132812 -8.273438 6.453125 -8.40625 6.828125 -8.40625 C 7.203125 -8.40625 7.515625 -8.273438 7.765625 -8.015625 C 8.023438 -7.753906 8.15625 -7.429688 8.15625 -7.046875 Z M 13.640625 -7.109375 C 13.640625 -6.222656 13.5 -5.359375 13.21875 -4.515625 C 12.9375 -3.671875 12.507812 -2.90625 11.9375 -2.21875 C 11.375 -1.539062 10.664062 -1 9.8125 -0.59375 C 8.96875 -0.195312 7.976562 0 6.84375 0 C 5.695312 0 4.691406 -0.195312 3.828125 -0.59375 C 2.972656 -1 2.257812 -1.539062 1.6875 -2.21875 C 1.125 -2.90625 0.703125 -3.671875 0.421875 -4.515625 C 0.140625 -5.359375 0 -6.222656 0 -7.109375 C 0 -7.992188 0.140625 -8.851562 0.421875 -9.6875 C 0.703125 -10.53125 1.125 -11.285156 1.6875 -11.953125 C 2.257812 -12.628906 2.972656 -13.164062 3.828125 -13.5625 C 4.691406 -13.96875 5.695312 -14.171875 6.84375 -14.171875 C 7.976562 -14.171875 8.96875 -13.96875 9.8125 -13.5625 C 10.664062 -13.164062 11.375 -12.628906 11.9375 -11.953125 C 12.507812 -11.285156 12.9375 -10.53125 13.21875 -9.6875 C 13.5 -8.851562 13.640625 -7.992188 13.640625 -7.109375 Z M 10.984375 -7.046875 C 10.984375 -7.628906 10.894531 -8.191406 10.71875 -8.734375 C 10.539062 -9.285156 10.28125 -9.78125 9.9375 -10.21875 C 9.59375 -10.664062 9.160156 -11.019531 8.640625 -11.28125 C 8.117188 -11.539062 7.519531 -11.671875 6.84375 -11.671875 C 6.144531 -11.671875 5.535156 -11.539062 5.015625 -11.28125 C 4.492188 -11.019531 4.054688 -10.664062 3.703125 -10.21875 C 3.359375 -9.78125 3.097656 -9.285156 2.921875 -8.734375 C 2.753906 -8.191406 2.671875 -7.628906 2.671875 -7.046875 C 2.671875 -6.484375 2.753906 -5.929688 2.921875 -5.390625 C 3.097656 -4.847656 3.359375 -4.359375 3.703125 -3.921875 C 4.054688 -3.484375 4.492188 -3.132812 5.015625 -2.875 C 5.535156 -2.613281 6.144531 -2.484375 6.84375 -2.484375 C 7.519531 -2.484375 8.117188 -2.613281 8.640625 -2.875 C 9.160156 -3.132812 9.59375 -3.484375 9.9375 -3.921875 C 10.28125 -4.359375 10.539062 -4.847656 10.71875 -5.390625 C 10.894531 -5.929688 10.984375 -6.484375 10.984375 -7.046875 Z M 10.984375 -7.046875 "/></g></g></g><g fill="#000000" fill-opacity="1"><g transform="translate(116.88117, 27.107197)"><g><path d="M 11.734375 -14.171875 C 11.859375 -14.171875 11.921875 -14.117188 11.921875 -14.015625 L 11.921875 -0.15625 C 11.921875 -0.0507812 11.859375 0 11.734375 0 L 9.390625 0 C 9.378906 0 9.351562 -0.00390625 9.3125 -0.015625 C 9.269531 -0.0234375 9.242188 -0.0351562 9.234375 -0.046875 L 2.71875 -9.390625 L 2.71875 -3.40625 L 0 -3.40625 L 0 -14.015625 C 0 -14.117188 0.0546875 -14.171875 0.171875 -14.171875 L 2.53125 -14.171875 C 2.550781 -14.171875 2.578125 -14.164062 2.609375 -14.15625 C 2.648438 -14.15625 2.675781 -14.144531 2.6875 -14.125 L 9.234375 -4.78125 L 9.234375 -14.015625 C 9.234375 -14.117188 9.300781 -14.171875 9.4375 -14.171875 Z M 11.734375 -14.171875 "/></g></g></g></svg>
